<svg width="19" height="21" viewBox="0 0 19 21" fill="none" xmlns="http://www.w3.org/2000/svg">
<path d="M0.125 20.8809V2.88086H6.325C6.55833 2.28086 6.925 1.79753 7.425 1.43086C7.925 1.06419 8.49167 0.880859 9.125 0.880859C9.75833 0.880859 10.325 1.06419 10.825 1.43086C11.325 1.79753 11.6917 2.28086 11.925 2.88086H18.125V20.8809H0.125ZM9.125 4.13086C9.34167 4.13086 9.52083 4.06003 9.6625 3.91836C9.80417 3.77669 9.875 3.59753 9.875 3.38086C9.875 3.16419 9.80417 2.98503 9.6625 2.84336C9.52083 2.70169 9.34167 2.63086 9.125 2.63086C8.90833 2.63086 8.72917 2.70169 8.5875 2.84336C8.44583 2.98503 8.375 3.16419 8.375 3.38086C8.375 3.59753 8.44583 3.77669 8.5875 3.91836C8.72917 4.06003 8.90833 4.13086 9.125 4.13086ZM2.125 17.7309C3.025 16.8475 4.07083 16.1517 5.2625 15.6434C6.45417 15.135 7.74167 14.8809 9.125 14.8809C10.5083 14.8809 11.7958 15.135 12.9875 15.6434C14.1792 16.1517 15.225 16.8475 16.125 17.7309V4.88086H2.125V17.7309ZM9.125 12.8809C10.0917 12.8809 10.9167 12.5392 11.6 11.8559C12.2833 11.1725 12.625 10.3475 12.625 9.38086C12.625 8.41419 12.2833 7.58919 11.6 6.90586C10.9167 6.22253 10.0917 5.88086 9.125 5.88086C8.15833 5.88086 7.33333 6.22253 6.65 6.90586C5.96667 7.58919 5.625 8.41419 5.625 9.38086C5.625 10.3475 5.96667 11.1725 6.65 11.8559C7.33333 12.5392 8.15833 12.8809 9.125 12.8809ZM4.125 18.8809H14.125V18.6309C13.425 18.0475 12.65 17.61 11.8 17.3184C10.95 17.0267 10.0583 16.8809 9.125 16.8809C8.19167 16.8809 7.3 17.0267 6.45 17.3184C5.6 17.61 4.825 18.0475 4.125 18.6309V18.8809ZM9.125 10.8809C8.70833 10.8809 8.35417 10.735 8.0625 10.4434C7.77083 10.1517 7.625 9.79753 7.625 9.38086C7.625 8.96419 7.77083 8.61003 8.0625 8.31836C8.35417 8.02669 8.70833 7.88086 9.125 7.88086C9.54167 7.88086 9.89583 8.02669 10.1875 8.31836C10.4792 8.61003 10.625 8.96419 10.625 9.38086C10.625 9.79753 10.4792 10.1517 10.1875 10.4434C9.89583 10.735 9.54167 10.8809 9.125 10.8809Z" fill="#767676"/>
</svg>
