<svg width="16" height="17" viewBox="0 0 16 17" fill="none" xmlns="http://www.w3.org/2000/svg">
<path d="M8 8.88086C6.9 8.88086 5.95833 8.48919 5.175 7.70586C4.39167 6.92253 4 5.98086 4 4.88086C4 3.78086 4.39167 2.83919 5.175 2.05586C5.95833 1.27253 6.9 0.880859 8 0.880859C9.1 0.880859 10.0417 1.27253 10.825 2.05586C11.6083 2.83919 12 3.78086 12 4.88086C12 5.98086 11.6083 6.92253 10.825 7.70586C10.0417 8.48919 9.1 8.88086 8 8.88086ZM0 16.8809V14.0809C0 13.5142 0.145833 12.9934 0.4375 12.5184C0.729167 12.0434 1.11667 11.6809 1.6 11.4309C2.63333 10.9142 3.68333 10.5267 4.75 10.2684C5.81667 10.01 6.9 9.88086 8 9.88086C9.1 9.88086 10.1833 10.01 11.25 10.2684C12.3167 10.5267 13.3667 10.9142 14.4 11.4309C14.8833 11.6809 15.2708 12.0434 15.5625 12.5184C15.8542 12.9934 16 13.5142 16 14.0809V16.8809H0ZM2 14.8809H14V14.0809C14 13.8975 13.9542 13.7309 13.8625 13.5809C13.7708 13.4309 13.65 13.3142 13.5 13.2309C12.6 12.7809 11.6917 12.4434 10.775 12.2184C9.85833 11.9934 8.93333 11.8809 8 11.8809C7.06667 11.8809 6.14167 11.9934 5.225 12.2184C4.30833 12.4434 3.4 12.7809 2.5 13.2309C2.35 13.3142 2.22917 13.4309 2.1375 13.5809C2.04583 13.7309 2 13.8975 2 14.0809V14.8809ZM8 6.88086C8.55 6.88086 9.02083 6.68503 9.4125 6.29336C9.80417 5.90169 10 5.43086 10 4.88086C10 4.33086 9.80417 3.86003 9.4125 3.46836C9.02083 3.07669 8.55 2.88086 8 2.88086C7.45 2.88086 6.97917 3.07669 6.5875 3.46836C6.19583 3.86003 6 4.33086 6 4.88086C6 5.43086 6.19583 5.90169 6.5875 6.29336C6.97917 6.68503 7.45 6.88086 8 6.88086Z" fill="#B2B2B2"/>
</svg>
