<svg version="1.1" id="Layer_1" xmlns="http://www.w3.org/2000/svg" xmlns:xlink="http://www.w3.org/1999/xlink" x="0px" y="0px"
	 width="100%" viewBox="0 0 300 424" enable-background="new 0 0 300 424" xml:space="preserve">
<path fill="#FFFFFE" opacity="1.000000" stroke="none" 
	d="
M301.000000,111.000000 
	C301.000000,215.999924 301.000000,320.499847 301.000000,424.999817 
	C201.000137,424.999878 101.000267,424.999878 1.000302,424.999939 
	C1.000201,283.666901 1.000201,142.333786 1.000101,1.000510 
	C100.999702,1.000340 200.999405,1.000340 300.999573,1.000170 
	C301.000000,37.500000 301.000000,74.000000 301.000000,111.000000 
M24.017838,22.985180 
	C24.000912,148.103363 23.982950,273.221527 23.983631,398.339722 
	C23.983637,399.451935 24.233713,400.564117 24.386379,401.837677 
	C25.606546,401.951141 26.574478,402.119812 27.542437,402.119965 
	C109.844055,402.134674 192.145676,402.142181 274.447266,402.087891 
	C275.780426,402.087036 277.113068,401.320160 278.845612,400.231384 
	C278.896759,395.289459 279.088165,390.342316 278.905914,385.409027 
	C278.856903,384.082031 277.671631,382.797028 277.000000,381.500793 
	C277.000000,381.500793 277.013489,381.521637 277.747345,381.330597 
	C278.010956,380.906708 278.274597,380.482788 278.863037,379.297516 
	C278.908569,378.134308 278.993896,376.971100 278.993958,375.807892 
	C279.001160,264.005798 279.005493,152.203690 278.992859,40.401588 
	C278.992188,34.575245 278.843567,28.748919 278.668610,22.148708 
	C277.160431,21.767677 275.652466,21.054241 274.144043,21.053230 
	C192.350769,20.998413 110.557449,20.997669 28.764168,21.046963 
	C27.241285,21.047880 25.718805,21.715794 24.017838,22.985180 
z"/>
<path fill="#FBFAF7" opacity="1.000000" stroke="none" 
	d="
M277.013489,381.521667 
	C277.013489,381.521637 277.000000,381.500793 277.002502,382.005432 
	C276.967255,388.633759 276.929443,394.757446 276.432434,400.933228 
	C192.381088,400.985382 108.788956,400.985382 25.140530,400.985382 
	C25.140530,393.863068 25.140530,387.550201 25.596626,381.198486 
	C108.223228,381.147949 190.393738,381.134155 272.564240,381.141113 
	C274.047333,381.141235 275.530396,381.389282 277.013489,381.521667 
M189.678741,397.159119 
	C189.770050,396.840851 189.996750,396.490936 189.930984,396.209351 
	C189.453964,394.166870 189.269760,391.930695 188.246506,390.196075 
	C187.762589,389.375702 184.578491,389.013458 184.431442,389.318359 
	C183.642776,390.953613 183.357956,392.852814 183.042267,394.685455 
	C182.907776,395.466217 183.121368,396.306976 183.182816,397.208893 
	C185.274155,397.375977 187.207932,397.530487 189.678741,397.159119 
M208.051132,394.997223 
	C207.929901,392.857758 207.808670,390.718292 207.687424,388.578827 
	C207.268967,388.578125 206.850510,388.577423 206.432068,388.576752 
	C206.073563,390.872406 205.571335,393.160706 205.453430,395.468658 
	C205.422333,396.077454 206.577942,396.746887 207.188629,397.388458 
	C207.467712,396.851685 207.746780,396.314941 208.051132,394.997223 
M211.626862,391.306000 
	C211.920227,392.818115 212.213577,394.330231 212.506943,395.842346 
	C213.159500,395.845123 213.812057,395.847931 214.464615,395.850739 
	C214.464615,393.993927 214.464615,392.137085 214.464615,390.280273 
	C213.441025,390.382477 212.417450,390.484680 211.626862,391.306000 
M209.357086,398.165802 
	C210.045029,398.124969 210.732986,398.084137 211.420929,398.043304 
	C211.390549,397.744141 211.360184,397.445007 211.329803,397.145844 
	C210.684296,397.293579 210.038788,397.441284 209.357086,398.165802 
z"/>
<path fill="#CAC0B4" opacity="1.000000" stroke="none" 
	d="
M278.763824,22.922581 
	C278.843567,28.748919 278.992188,34.575245 278.992859,40.401588 
	C279.005493,152.203690 279.001160,264.005798 278.993958,375.807892 
	C278.993896,376.971100 278.908569,378.134308 278.274719,379.630554 
	C277.403259,379.932678 277.120117,379.901733 276.890045,379.414795 
	C276.960815,268.384216 276.978943,157.809601 276.989258,47.235004 
	C276.989349,46.238071 276.884979,45.241131 277.058594,44.114212 
	C277.152924,43.607006 277.018005,43.229782 276.922119,42.394970 
	C276.988281,35.618870 277.015503,29.300364 277.330383,22.980776 
	C278.000000,22.960655 278.381897,22.941618 278.763824,22.922581 
z"/>
<path fill="#969282" opacity="1.000000" stroke="none" 
	d="
M25.140530,381.237335 
	C25.140530,387.550201 25.140530,393.863068 25.140530,400.985382 
	C108.788956,400.985382 192.381088,400.985382 276.820648,400.962158 
	C277.927368,400.929565 278.186646,400.920166 278.445953,400.910767 
	C277.113068,401.320160 275.780426,402.087036 274.447266,402.087891 
	C192.145676,402.142181 109.844055,402.134674 27.542437,402.119965 
	C26.574478,402.119812 25.606546,401.951141 24.386379,401.837677 
	C24.233713,400.564117 23.983637,399.451935 23.983631,398.339722 
	C23.982950,273.221527 24.000912,148.103363 24.355537,22.530138 
	C24.693239,22.075096 25.190334,22.045952 25.137962,22.508291 
	C25.386822,29.705786 25.688049,36.440941 25.990753,43.356201 
	C25.992231,43.536312 25.993320,43.896538 25.665207,44.176910 
	C25.222946,46.275440 25.009884,48.093555 25.009136,49.911762 
	C24.991201,93.574921 24.987740,137.238098 24.998590,180.901260 
	C25.015072,247.228668 25.044357,313.556091 25.069740,380.222839 
	C25.094358,380.787231 25.117443,381.012268 25.140530,381.237335 
z"/>
<path fill="#B0AA9D" opacity="1.000000" stroke="none" 
	d="
M25.190334,22.045952 
	C25.190334,22.045952 24.693239,22.075096 24.444687,22.073795 
	C25.718805,21.715794 27.241285,21.047880 28.764168,21.046963 
	C110.557449,20.997669 192.350769,20.998413 274.144043,21.053230 
	C275.652466,21.054241 277.160431,21.767677 278.716217,22.535645 
	C278.381897,22.941618 278.000000,22.960655 277.007355,22.719265 
	C274.575897,22.366451 272.755188,22.194298 270.934418,22.193459 
	C234.138489,22.176502 197.342529,22.195498 160.546616,22.173822 
	C115.427849,22.147247 70.309097,22.089960 25.190334,22.045952 
z"/>
<path fill="#ABA79B" opacity="1.000000" stroke="none" 
	d="
M25.596626,381.198486 
	C25.117443,381.012268 25.094358,380.787231 25.531410,380.266510 
	C97.282387,379.978271 168.573227,379.991638 239.864059,379.987488 
	C252.188370,379.986755 264.512665,379.911591 276.836975,379.870819 
	C277.120117,379.901733 277.403259,379.932678 278.112305,380.011230 
	C278.274597,380.482788 278.010956,380.906708 277.380432,381.426147 
	C275.530396,381.389282 274.047333,381.141235 272.564240,381.141113 
	C190.393738,381.134155 108.223228,381.147949 25.596626,381.198486 
z"/>
<path fill="#CAC0B4" opacity="1.000000" stroke="none" 
	d="
M278.645782,400.571075 
	C278.186646,400.920166 277.927368,400.929565 277.279846,400.910034 
	C276.929443,394.757446 276.967255,388.633759 277.006470,382.001404 
	C277.671631,382.797028 278.856903,384.082031 278.905914,385.409027 
	C279.088165,390.342316 278.896759,395.289459 278.645782,400.571075 
z"/>
<path fill="#F5F2E7" opacity="1.000000" stroke="none" 
	d="
M189.410233,397.422058 
	C187.207932,397.530487 185.274155,397.375977 183.182816,397.208893 
	C183.121368,396.306976 182.907776,395.466217 183.042267,394.685455 
	C183.357956,392.852814 183.642776,390.953613 184.431442,389.318359 
	C184.578491,389.013458 187.762589,389.375702 188.246506,390.196075 
	C189.269760,391.930695 189.453964,394.166870 189.930984,396.209351 
	C189.996750,396.490936 189.770050,396.840851 189.410233,397.422058 
z"/>
<path fill="#E9E5DB" opacity="1.000000" stroke="none" 
	d="
M208.038483,395.387695 
	C207.746780,396.314941 207.467712,396.851685 207.188629,397.388458 
	C206.577942,396.746887 205.422333,396.077454 205.453430,395.468658 
	C205.571335,393.160706 206.073563,390.872406 206.432068,388.576752 
	C206.850510,388.577423 207.268967,388.578125 207.687424,388.578827 
	C207.808670,390.718292 207.929901,392.857758 208.038483,395.387695 
z"/>
<path fill="#E9E5DB" opacity="1.000000" stroke="none" 
	d="
M211.510361,390.946442 
	C212.417450,390.484680 213.441025,390.382477 214.464615,390.280273 
	C214.464615,392.137085 214.464615,393.993927 214.464615,395.850739 
	C213.812057,395.847931 213.159500,395.845123 212.506943,395.842346 
	C212.213577,394.330231 211.920227,392.818115 211.510361,390.946442 
z"/>
<path fill="#E9E5DB" opacity="1.000000" stroke="none" 
	d="
M209.375183,397.877380 
	C210.038788,397.441284 210.684296,397.293579 211.329803,397.145844 
	C211.360184,397.445007 211.390549,397.744141 211.420929,398.043304 
	C210.732986,398.084137 210.045029,398.124969 209.375183,397.877380 
z"/>
<path fill="#FEFEFC" opacity="1.000000" stroke="none" 
	d="
M276.890045,379.414795 
	C264.512665,379.911591 252.188370,379.986755 239.864059,379.987488 
	C168.573227,379.991638 97.282387,379.978271 25.529875,379.927155 
	C25.044357,313.556091 25.015072,247.228668 24.998590,180.901260 
	C24.987740,137.238098 24.991201,93.574921 25.009136,49.911762 
	C25.009884,48.093555 25.222946,46.275440 26.129936,44.248154 
	C74.406769,44.052650 121.890778,44.049507 169.374756,44.085381 
	C205.192978,44.112442 241.011169,44.189430 276.829376,44.244194 
	C276.884979,45.241131 276.989349,46.238071 276.989258,47.235004 
	C276.978943,157.809601 276.960815,268.384216 276.890045,379.414795 
M198.225204,200.943893 
	C198.493179,201.244675 198.761154,201.545441 199.918411,201.755829 
	C199.488007,201.373215 199.057602,200.990585 198.225204,200.943893 
M56.979542,352.290924 
	C56.565273,352.767975 56.151001,353.245026 55.244617,353.930267 
	C54.934719,354.351501 54.624821,354.772766 53.812366,355.451904 
	C53.448059,355.869873 53.083755,356.287842 52.195740,357.064514 
	C52.254852,357.625305 52.313965,358.186066 52.373070,358.746826 
	C52.852093,358.395447 53.331112,358.044067 54.275982,357.449890 
	C54.589882,357.033508 54.903778,356.617126 55.746151,356.007538 
	C56.089336,355.570618 56.432518,355.133667 57.257858,354.469574 
	C57.577549,354.049530 57.897236,353.629456 58.818684,352.890869 
	C58.809307,352.491760 58.799927,352.092621 58.790543,351.693512 
	C58.387806,351.818817 57.985069,351.944122 56.979542,352.290924 
M77.449684,334.488464 
	C77.334641,334.175659 77.219597,333.862823 77.972855,333.587067 
	C78.206490,332.958557 78.440125,332.330048 78.673759,331.701538 
	C77.931534,332.114258 77.189301,332.526978 75.944923,332.857727 
	C75.449867,332.799438 74.954819,332.741119 74.420303,331.789307 
	C74.420303,323.957520 74.420303,316.125732 74.420303,308.293945 
	C73.844742,308.299896 73.269188,308.305817 72.693626,308.311737 
	C72.693626,315.395294 72.788780,322.481140 72.616867,329.560516 
	C72.580566,331.055176 71.566208,332.526093 70.647606,333.446625 
	C64.718895,327.490845 58.790176,321.535034 52.861462,315.579254 
	C52.403564,316.044922 51.945671,316.510620 51.487774,316.976318 
	C57.598595,323.373566 63.709415,329.770844 68.782982,336.255768 
	C60.324417,336.255768 51.865852,336.255768 43.407288,336.255768 
	C43.419498,336.895355 43.431709,337.534912 43.443920,338.174500 
	C51.010201,338.174500 58.578667,338.066010 66.141876,338.218445 
	C70.156143,338.299377 72.864922,339.961517 72.727737,344.680573 
	C72.553551,350.672760 72.606674,356.675964 72.750641,362.669861 
	C72.785011,364.101013 73.567581,365.514160 74.007889,367.117126 
	C74.007889,367.117126 74.237946,367.107788 74.237946,367.107788 
	C74.237946,367.107788 73.932465,367.014160 74.270256,366.126556 
	C74.289261,358.205109 74.308266,350.283630 74.956909,342.076477 
	C80.118347,346.853210 85.272636,351.637756 90.447014,356.400391 
	C91.528351,357.395691 92.683823,358.310486 93.805130,359.262360 
	C94.245277,358.810333 94.685432,358.358307 95.125587,357.906281 
	C89.146736,351.813690 83.167892,345.721100 76.568680,338.996338 
	C81.388153,338.650177 85.249374,338.372864 89.904785,338.159729 
	C91.231857,338.139313 92.558922,338.118896 94.576111,338.412933 
	C97.074196,338.296021 99.572289,338.179108 102.734268,337.734985 
	C101.401978,337.253479 100.079147,336.387390 98.735840,336.354340 
	C91.340034,336.172577 83.939224,336.194397 76.814186,335.543915 
	C76.916504,335.349304 77.018829,335.154724 77.449684,334.488464 
M250.880295,366.164948 
	C250.338821,365.861816 249.797363,365.558685 248.444031,365.138885 
	C247.898849,365.142303 247.353683,365.145691 246.491104,365.130280 
	C246.491104,365.130280 246.173157,365.128937 245.408112,365.090057 
	C243.658539,365.070923 241.854080,364.771362 240.172714,365.100586 
	C237.843704,365.556549 235.607285,366.485382 233.331238,367.211761 
	C234.327087,369.392731 235.322952,371.573700 236.229965,373.560059 
	C237.765106,371.047485 238.933319,369.135498 239.565536,368.100739 
	C242.067383,370.709747 244.095947,372.825195 246.124512,374.940643 
	C246.699081,374.530487 247.273651,374.120331 247.848221,373.710175 
	C248.234924,372.149445 248.621643,370.588745 249.704697,369.041809 
	C250.414383,368.787262 251.124084,368.532715 251.833786,368.278198 
	C251.463959,367.709534 251.094116,367.140869 250.880295,366.164948 
M224.004150,200.036362 
	C223.461853,200.469604 222.919571,200.902863 222.377258,201.336090 
	C222.950363,201.544662 223.523483,201.753235 224.313278,202.667984 
	C218.373215,208.990448 212.433151,215.312912 206.493088,221.635376 
	C207.010635,222.127762 207.528198,222.620132 208.045746,223.112518 
	C213.071121,217.937820 218.022888,212.687897 223.177032,207.644806 
	C224.368607,206.478912 226.251907,206.019989 227.717590,205.985489 
	C227.757843,207.246094 227.798096,208.506714 227.571289,210.088623 
	C227.660782,210.469635 227.750275,210.850632 227.721024,212.126297 
	C227.761475,216.674896 227.801926,221.223480 227.572739,226.095322 
	C227.547943,226.233429 227.473557,226.385941 227.508621,226.506668 
	C227.583511,226.764618 227.715042,227.006149 227.716019,227.947617 
	C227.786133,228.641708 227.856247,229.335800 227.993500,230.640198 
	C228.360916,230.440491 228.728317,230.240784 229.315170,229.119446 
	C229.304428,221.516617 229.293701,213.913803 229.929672,205.956345 
	C234.616669,210.209122 239.298035,214.468109 243.993774,218.711197 
	C245.576019,220.140915 247.194778,221.530228 248.796844,222.938004 
	C249.184387,222.545517 249.571945,222.153015 249.959488,221.760513 
	C248.869614,220.488693 247.849823,219.147842 246.677094,217.957657 
	C242.723267,213.944962 238.640381,210.056091 234.781448,205.955536 
	C233.845535,204.961014 233.579254,203.336304 233.785614,201.445038 
	C233.150024,200.980988 232.514435,200.516953 231.916199,199.345016 
	C237.973679,193.069550 244.031143,186.794098 250.088623,180.518631 
	C249.586517,180.013626 249.084412,179.508621 248.582306,179.003616 
	C245.140411,182.426758 241.787567,185.946030 238.228394,189.242569 
	C235.387787,191.873581 232.295761,194.233170 229.366867,195.819031 
	C229.276718,187.856964 229.186569,179.894897 228.985901,171.366409 
	C228.636627,171.564636 228.287369,171.762878 227.751389,172.747787 
	C227.762436,174.092270 227.773468,175.436737 227.445770,177.353622 
	C227.559448,178.640747 227.673141,179.927856 227.711212,182.081177 
	C227.734924,184.981415 227.758636,187.881638 227.447754,191.294342 
	C227.563553,192.265671 227.679367,193.236984 227.716019,194.842239 
	C227.737106,195.479507 227.758179,196.116776 227.164261,197.090393 
	C226.340622,196.856552 225.516998,196.622726 224.357925,195.850708 
	C223.439026,194.995010 222.520142,194.139328 221.312012,192.850433 
	C220.911728,192.510376 220.511444,192.170319 219.788528,191.253723 
	C215.771698,187.330109 211.754868,183.406494 207.738037,179.482880 
	C207.273239,179.953003 206.808441,180.423126 206.343643,180.893250 
	C210.499771,184.968109 214.655914,189.042984 219.045670,193.583267 
	C219.436813,193.914398 219.827957,194.245529 220.590134,195.121475 
	C221.555359,196.014862 222.520599,196.908249 223.756653,198.214005 
	C224.124649,198.774887 224.492645,199.335770 224.004150,200.036362 
M160.793350,150.416397 
	C160.507553,147.599426 160.221771,144.782455 159.220947,141.989960 
	C156.978378,142.427551 154.729568,142.836136 152.496552,143.318024 
	C151.683792,143.493408 150.908722,143.843536 150.116455,144.113953 
	C150.791595,144.920776 151.368973,146.293655 152.159851,146.430237 
	C154.718338,146.872040 157.355240,146.859680 159.981400,147.766205 
	C159.987595,148.510880 159.993805,149.255554 159.437637,150.216141 
	C159.041595,150.638794 158.645554,151.061447 158.249512,151.484116 
	C158.348862,151.665146 158.448212,151.846176 158.547562,152.027206 
	C159.174484,151.727600 159.801392,151.428009 160.793350,150.416397 
M133.014481,143.565765 
	C132.994995,144.005066 132.975525,144.444366 132.831284,145.708130 
	C133.215286,148.124054 133.294327,150.819443 136.961884,150.937927 
	C137.181778,152.317841 136.928726,154.221359 137.736221,154.950699 
	C138.851517,155.958023 141.947189,156.793579 142.145798,156.464844 
	C143.375198,154.429886 144.030197,152.047882 144.963608,149.050034 
	C146.074371,148.075256 147.185135,147.100479 147.826828,146.537338 
	C146.297180,144.150253 144.733215,141.709610 142.569931,138.333694 
	C142.742889,141.866547 142.843811,143.927933 142.441132,146.215836 
	C141.677368,145.463974 140.913620,144.712097 140.084488,143.128311 
	C137.738342,143.054459 135.392197,142.980621 133.014481,143.565765 
M191.010529,152.997925 
	C191.010529,152.997925 191.054886,153.074905 191.926270,153.059616 
	C193.938965,152.549072 195.951675,152.038528 197.964371,151.527985 
	C196.670120,150.647507 195.375870,149.767029 194.556549,148.287354 
	C196.564194,148.114319 198.571854,147.941284 200.950836,147.736237 
	C195.750061,143.574814 192.135422,143.514786 185.855896,147.066879 
	C186.886078,149.063370 187.910187,151.048080 188.956604,153.676453 
	C189.336288,154.229202 189.715973,154.781952 190.095657,155.334686 
	C190.422455,154.575821 190.749268,153.816971 191.010529,152.997925 
M76.514442,92.416718 
	C82.189140,98.095764 87.863846,103.774818 93.538544,109.453873 
	C93.696609,109.270454 93.854675,109.087029 94.012749,108.903610 
	C88.253098,102.623558 82.493439,96.343498 77.029274,89.162933 
	C85.572441,88.852264 94.115608,88.541588 102.658783,88.230911 
	C102.650536,87.748993 102.642288,87.267075 102.634041,86.785156 
	C93.844452,86.785156 85.054871,86.785156 76.167419,86.372963 
	C76.167419,86.372963 75.983604,85.991280 76.347832,85.582054 
	C76.456589,85.435356 76.565338,85.288658 77.256081,84.956123 
	C83.224670,79.030258 89.193260,73.104393 95.161858,67.178528 
	C94.691986,66.688179 94.222107,66.197823 93.752235,65.707466 
	C92.607903,66.672905 91.396294,67.569855 90.331207,68.615982 
	C86.307068,72.568497 82.391945,76.634460 78.293510,80.507141 
	C77.252663,81.490654 75.685402,81.917068 74.414566,81.715454 
	C74.387848,74.918282 74.361130,68.121109 74.634056,60.964130 
	C74.518204,60.544010 74.402359,60.123890 74.222633,58.889774 
	C74.119324,58.760498 74.030090,58.615448 73.908325,58.506870 
	C73.808319,58.417690 73.669670,58.371857 73.548149,58.306808 
	C73.264359,59.477932 72.749756,60.646149 72.734985,61.820656 
	C72.651764,68.438972 72.759613,75.060532 72.597977,81.676003 
	C72.576935,82.536736 71.378777,83.368713 70.409615,83.611641 
	C69.602089,83.020531 68.794563,82.429428 67.987030,81.838326 
	C67.453156,82.400497 66.919273,82.962662 66.385391,83.524834 
	C67.525352,84.077690 68.665314,84.630547 69.676384,85.948616 
	C63.012714,86.220871 56.348961,86.491180 49.685417,86.766533 
	C47.609039,86.852333 45.533226,86.951744 43.457153,87.044930 
	C43.480003,87.564644 43.502850,88.084366 43.525700,88.604080 
	C45.414558,88.604080 47.304642,88.559830 49.192059,88.612015 
	C56.108025,88.803200 63.023113,89.026459 69.384438,89.714188 
	C63.308746,95.776649 57.233051,101.839104 51.157356,107.901558 
	C51.328293,108.060829 51.499229,108.220093 51.670162,108.379364 
	C57.829220,102.755005 63.988277,97.130653 70.740364,91.127045 
	C71.388847,91.677559 72.583229,92.211746 72.600258,92.781151 
	C72.749588,97.774536 72.689217,102.774208 72.690331,107.772011 
	C72.690994,110.722702 72.690460,113.673393 72.690460,116.624092 
	C73.390884,116.618393 74.091316,116.612701 74.791740,116.607010 
	C74.791740,108.193367 74.791740,99.779732 75.382095,91.746780 
	C75.605927,91.811920 75.829758,91.877060 76.514442,92.416718 
M86.600792,223.862671 
	C95.783516,235.258850 110.895264,230.041962 114.357933,217.923019 
	C116.362274,210.908081 115.204628,203.888733 110.499191,198.089554 
	C105.475990,191.898773 100.030983,186.046005 94.680931,180.126282 
	C91.723030,176.853424 91.485443,174.254791 95.259079,171.175400 
	C102.244713,165.474930 104.559975,157.671722 104.060417,148.869385 
	C103.659470,141.804459 99.405830,136.236160 92.638245,134.011490 
	C87.048210,132.173904 80.532822,134.384277 76.246704,139.625519 
	C74.509796,141.749496 72.855583,143.941101 70.783440,146.587646 
	C69.161987,144.179993 68.078697,142.332413 66.765312,140.666199 
	C62.867779,135.721634 58.079727,131.893967 51.436401,133.296722 
	C44.457470,134.770309 39.716354,139.124268 37.847759,146.386658 
	C35.977283,153.656342 38.009212,160.096405 42.329678,165.590515 
	C47.560070,172.241745 53.464996,178.376709 59.267918,184.556747 
	C61.682457,187.128204 61.090633,188.886993 58.556377,190.590836 
	C51.754475,195.163940 49.267513,202.141113 48.225391,209.727310 
	C47.122650,217.754761 51.813393,225.704697 58.746346,228.335800 
	C65.518425,230.905838 72.873932,228.189285 77.884598,221.317871 
	C78.916512,219.902756 80.089424,218.590485 81.161430,217.274887 
	C83.032608,219.510666 84.610863,221.396439 86.600792,223.862671 
M122.986412,313.788086 
	C122.503914,321.213135 125.194382,327.412781 130.146164,332.825104 
	C136.088730,339.320312 142.096786,345.768860 147.743210,352.516449 
	C150.748474,356.107819 153.050201,360.287872 156.258652,365.082672 
	C157.362350,363.470764 157.953415,362.664520 158.485886,361.821289 
	C165.360825,350.934326 173.920456,341.527527 182.962601,332.378479 
	C188.987869,326.281952 190.400574,318.122070 188.088150,309.578461 
	C187.637177,307.912262 187.298935,305.958710 187.724045,304.353668 
	C190.632812,293.371643 187.083344,284.579132 179.286911,276.839966 
	C174.243301,271.833374 169.455490,266.539398 164.886780,261.094208 
	C161.669067,257.259216 159.012161,252.953674 156.549149,249.484116 
	C146.676208,260.909088 137.222214,271.768982 127.864616,282.711334 
	C123.096436,288.287048 121.649429,295.074738 123.237274,301.919861 
	C124.149223,305.851227 123.969566,309.273926 122.986412,313.788086 
M243.067627,61.009735 
	C238.123795,64.589996 233.179977,68.170258 228.223938,71.759361 
	C226.501541,69.733719 224.471313,66.850258 221.945221,64.499680 
	C218.728897,61.506855 215.002396,59.414257 210.221939,60.438007 
	C198.927826,62.856686 193.652420,73.152855 197.652985,84.599182 
	C198.400162,86.736961 198.747849,89.592255 197.953537,91.588730 
	C194.871872,99.334427 195.929138,106.456688 201.063843,112.603157 
	C207.445236,120.241959 214.555939,127.266869 221.125687,134.755173 
	C223.912445,137.931534 226.124710,141.611923 228.858994,145.427322 
	C230.139923,144.067078 231.038315,143.155823 231.889572,142.202484 
	C239.383438,133.809921 246.713425,125.264137 254.404419,117.056534 
	C260.952087,110.069061 262.258453,102.077721 260.522614,93.057915 
	C260.028687,90.491501 259.795502,87.614120 260.433594,85.134315 
	C263.773682,72.154099 257.889008,58.953724 243.067627,61.009735 
M156.907074,188.502960 
	C156.907074,183.087067 156.907074,177.671173 156.907074,172.255280 
	C156.320114,172.283951 155.733170,172.312622 155.146210,172.341293 
	C155.146210,192.184357 155.146210,212.027420 155.146210,231.870483 
	C155.733139,231.880234 156.320053,231.889999 156.906982,231.899750 
	C156.906982,217.767181 156.906982,203.634628 156.907074,188.502960 
M70.181854,268.682129 
	C78.405716,260.472748 86.629570,252.263351 94.853424,244.053955 
	C94.907387,244.125320 94.961357,244.196686 95.015320,244.268036 
	C80.910484,258.289368 66.805641,272.310699 52.700806,286.332062 
	C52.653576,286.293976 52.606346,286.255920 52.559116,286.217834 
	C58.272152,280.544647 63.985188,274.871429 70.181854,268.682129 
M140.870972,80.629204 
	C136.918335,76.983833 133.505203,72.678261 129.886734,68.967430 
	C143.950241,83.097595 158.013733,97.227760 172.077240,111.357918 
	C171.992126,111.441734 171.907028,111.525551 171.821915,111.609367 
	C161.671509,101.449463 151.521103,91.289558 140.870972,80.629204 
M221.517441,324.939331 
	C234.195663,329.512360 246.873886,334.085419 259.552124,338.658447 
	C259.783417,338.001190 260.014709,337.343964 260.246002,336.686707 
	C241.702972,329.945129 223.159958,323.203552 204.616943,316.461975 
	C204.374573,317.088531 204.132202,317.715088 203.889832,318.341675 
	C209.522934,320.440277 215.156036,322.538879 221.517441,324.939331 
M240.894562,200.073578 
	C240.147064,200.437775 239.399567,200.801987 237.704712,201.627777 
	C245.147614,201.627777 251.431503,201.627777 257.715393,201.627777 
	C257.734924,201.096344 257.754425,200.564896 257.773956,200.033463 
	C252.471191,200.033463 247.168427,200.033463 240.894562,200.073578 
M182.984512,149.430786 
	C182.306305,146.133774 184.587784,142.148346 181.134705,139.172195 
	C181.134705,145.001465 181.134705,150.381287 181.134705,155.761108 
	C181.635941,155.785538 182.137161,155.809952 182.638397,155.834381 
	C182.752655,154.009506 182.866913,152.184647 182.984512,149.430786 
M258.742401,294.851959 
	C258.895172,293.333527 259.047943,291.815063 259.200714,290.296631 
	C257.657501,290.268951 256.028076,289.939545 254.608719,290.345184 
	C253.933517,290.538147 253.658447,292.131195 253.202103,293.089996 
	C254.813934,293.741211 256.425781,294.392456 258.742401,294.851959 
M237.915878,270.728760 
	C238.347580,271.871918 238.779282,273.015045 239.256760,274.279480 
	C239.991409,273.115906 240.644745,272.149658 241.225632,271.141602 
	C241.793198,270.156769 242.286835,269.129333 242.812927,268.120575 
	C241.547226,267.607758 240.212463,266.576630 239.035934,266.733337 
	C237.940018,266.879333 237.012512,268.289398 236.010864,269.143036 
	C236.474213,269.617310 236.937576,270.091583 237.915878,270.728760 
M60.390350,75.481758 
	C60.268116,74.738930 60.145882,73.996109 60.023647,73.253281 
	C59.508980,73.364197 58.994308,73.475113 58.479637,73.586021 
	C58.830502,74.088585 59.181362,74.591141 60.390350,75.481758 
M52.182518,67.743584 
	C52.703918,67.938599 53.225315,68.133614 53.746716,68.328629 
	C53.767471,67.926544 53.881798,67.200607 53.793743,67.175163 
	C53.239574,67.015060 52.640423,67.010658 52.182518,67.743584 
M93.415634,316.249969 
	C93.317230,316.805206 93.218826,317.360413 93.120415,317.915649 
	C93.448517,317.513885 93.776611,317.112122 93.415634,316.249969 
M57.497913,71.999901 
	C57.630230,71.800850 57.762547,71.601791 57.894867,71.402740 
	C57.596600,71.435928 57.298336,71.469124 57.497913,71.999901 
M63.999470,77.500000 
	C63.799553,77.366920 63.599640,77.233833 63.399723,77.100754 
	C63.433151,77.400505 63.466576,77.700249 63.999470,77.500000 
M66.500000,81.000000 
	C66.533203,80.699921 66.566406,80.399849 66.599609,80.099762 
	C66.399742,80.233177 66.199867,80.366585 66.500000,81.000000 
M79.518288,330.014252 
	C79.486000,330.309296 79.453705,330.604340 79.421417,330.899384 
	C79.614906,330.768341 79.808403,330.637268 79.518288,330.014252 
z"/>
<path fill="#FCFBF8" opacity="1.000000" stroke="none" 
	d="
M25.137962,22.508291 
	C70.309097,22.089960 115.427849,22.147247 160.546616,22.173822 
	C197.342529,22.195498 234.138489,22.176502 270.934418,22.193459 
	C272.755188,22.194298 274.575897,22.366451 276.719666,22.720345 
	C277.015503,29.300364 276.988281,35.618870 276.465332,42.453674 
	C225.471664,42.982971 174.973709,42.978947 124.475800,43.015034 
	C91.646935,43.038494 58.818115,43.120380 25.989277,43.176094 
	C25.688049,36.440941 25.386822,29.705786 25.137962,22.508291 
M114.034302,26.125505 
	C113.690063,25.955780 113.345833,25.786057 112.442497,25.200020 
	C111.519539,25.224340 110.596573,25.248663 108.954292,25.444332 
	C108.591301,28.557220 108.228302,31.670107 107.865311,34.782993 
	C108.307976,34.885475 108.750648,34.987953 109.193314,35.090431 
	C109.552444,34.429710 109.911568,33.768993 110.936188,33.137115 
	C114.330711,34.808617 114.034592,32.350609 114.354721,29.996819 
	C114.354721,29.996819 114.551704,29.654253 114.993172,29.095831 
	C114.815323,28.233593 114.637474,27.371355 114.034302,26.125505 
M205.737656,34.918552 
	C209.219055,33.738113 209.754974,30.789000 208.584778,28.170576 
	C208.022980,26.913519 205.172470,26.241592 203.313995,26.143080 
	C201.880096,26.067070 199.278732,27.107063 199.125870,27.986315 
	C198.773209,30.014704 199.104904,32.539024 200.141541,34.275658 
	C200.673203,35.166325 203.314774,34.797543 205.000000,35.000000 
	C205.000000,35.000000 204.997025,35.003002 205.737656,34.918552 
M155.322296,28.285757 
	C153.929657,26.193928 152.434479,23.894487 149.508850,25.189054 
	C148.223938,25.757618 146.456360,27.556479 146.596542,28.561081 
	C146.930527,30.954271 145.457092,34.192955 149.187546,35.567455 
	C152.659958,36.846889 155.772079,33.849747 155.322296,28.285757 
M68.922173,30.471434 
	C69.050720,36.418926 69.137428,36.490669 75.242455,34.903793 
	C71.208374,33.443607 70.600197,31.756561 74.702080,30.284637 
	C73.600517,29.123793 72.747871,28.225256 71.600418,27.016043 
	C73.384354,26.749590 74.525131,26.579203 75.665909,26.408813 
	C75.656944,26.113249 75.647987,25.817682 75.639023,25.522118 
	C73.674362,25.522118 71.709694,25.522118 69.244347,25.522118 
	C69.147789,26.736067 69.035248,28.150999 68.922173,30.471434 
z"/>
<path fill="#9C9688" opacity="1.000000" stroke="none" 
	d="
M25.990753,43.356201 
	C58.818115,43.120380 91.646935,43.038494 124.475800,43.015034 
	C174.973709,42.978947 225.471664,42.982971 276.426361,42.911270 
	C277.018005,43.229782 277.152924,43.607006 277.058594,44.114212 
	C241.011169,44.189430 205.192978,44.112442 169.374756,44.085381 
	C121.890778,44.049507 74.406769,44.052650 26.458048,43.967781 
	C25.993320,43.896538 25.992231,43.536312 25.990753,43.356201 
z"/>
<path fill="#FCA98D" opacity="1.000000" stroke="none" 
	d="
M86.394958,223.572449 
	C84.610863,221.396439 83.032608,219.510666 81.161430,217.274887 
	C80.089424,218.590485 78.916512,219.902756 77.884598,221.317871 
	C72.873932,228.189285 65.518425,230.905838 58.746346,228.335800 
	C51.813393,225.704697 47.122650,217.754761 48.225391,209.727310 
	C49.267513,202.141113 51.754475,195.163940 58.556377,190.590836 
	C61.090633,188.886993 61.682457,187.128204 59.267918,184.556747 
	C53.464996,178.376709 47.560070,172.241745 42.329678,165.590515 
	C38.009212,160.096405 35.977283,153.656342 37.847759,146.386658 
	C39.716354,139.124268 44.457470,134.770309 51.436401,133.296722 
	C58.079727,131.893967 62.867779,135.721634 66.765312,140.666199 
	C68.078697,142.332413 69.161987,144.179993 70.783440,146.587646 
	C72.855583,143.941101 74.509796,141.749496 76.246704,139.625519 
	C80.532822,134.384277 87.048210,132.173904 92.638245,134.011490 
	C99.405830,136.236160 103.659470,141.804459 104.060417,148.869385 
	C104.559975,157.671722 102.244713,165.474930 95.259079,171.175400 
	C91.485443,174.254791 91.723030,176.853424 94.680931,180.126282 
	C100.030983,186.046005 105.475990,191.898773 110.499191,198.089554 
	C115.204628,203.888733 116.362274,210.908081 114.357933,217.923019 
	C110.895264,230.041962 95.783516,235.258850 86.394958,223.572449 
z"/>
<path fill="#FCA98D" opacity="1.000000" stroke="none" 
	d="
M123.006104,313.357300 
	C123.969566,309.273926 124.149223,305.851227 123.237274,301.919861 
	C121.649429,295.074738 123.096436,288.287048 127.864616,282.711334 
	C137.222214,271.768982 146.676208,260.909088 156.549149,249.484116 
	C159.012161,252.953674 161.669067,257.259216 164.886780,261.094208 
	C169.455490,266.539398 174.243301,271.833374 179.286911,276.839966 
	C187.083344,284.579132 190.632812,293.371643 187.724045,304.353668 
	C187.298935,305.958710 187.637177,307.912262 188.088150,309.578461 
	C190.400574,318.122070 188.987869,326.281952 182.962601,332.378479 
	C173.920456,341.527527 165.360825,350.934326 158.485886,361.821289 
	C157.953415,362.664520 157.362350,363.470764 156.258652,365.082672 
	C153.050201,360.287872 150.748474,356.107819 147.743210,352.516449 
	C142.096786,345.768860 136.088730,339.320312 130.146164,332.825104 
	C125.194382,327.412781 122.503914,321.213135 123.006104,313.357300 
M158.536057,307.934814 
	C157.908920,305.980194 157.281769,304.025574 156.514511,301.634247 
	C152.821335,304.506500 152.259506,307.050018 154.757950,309.706787 
	C155.104813,310.075653 157.003815,308.984863 158.536057,307.934814 
z"/>
<path fill="#FCA88C" opacity="1.000000" stroke="none" 
	d="
M243.492950,60.987335 
	C257.889008,58.953724 263.773682,72.154099 260.433594,85.134315 
	C259.795502,87.614120 260.028687,90.491501 260.522614,93.057915 
	C262.258453,102.077721 260.952087,110.069061 254.404419,117.056534 
	C246.713425,125.264137 239.383438,133.809921 231.889572,142.202484 
	C231.038315,143.155823 230.139923,144.067078 228.858994,145.427322 
	C226.124710,141.611923 223.912445,137.931534 221.125687,134.755173 
	C214.555939,127.266869 207.445236,120.241959 201.063843,112.603157 
	C195.929138,106.456688 194.871872,99.334427 197.953537,91.588730 
	C198.747849,89.592255 198.400162,86.736961 197.652985,84.599182 
	C193.652420,73.152855 198.927826,62.856686 210.221939,60.438007 
	C215.002396,59.414257 218.728897,61.506855 221.945221,64.499680 
	C224.471313,66.850258 226.501541,69.733719 228.223938,71.759361 
	C233.179977,68.170258 238.123795,64.589996 243.492950,60.987335 
z"/>
<path fill="#716647" opacity="1.000000" stroke="none" 
	d="
M74.334404,61.323940 
	C74.361130,68.121109 74.387848,74.918282 74.286636,82.567566 
	C74.997162,83.993767 75.835632,84.567863 76.674095,85.141960 
	C76.565338,85.288658 76.456589,85.435356 75.928490,85.866608 
	C75.761192,86.362503 76.013237,86.573830 76.265282,86.785156 
	C85.054871,86.785156 93.844452,86.785156 102.634041,86.785156 
	C102.642288,87.267075 102.650536,87.748993 102.658783,88.230911 
	C94.115608,88.541588 85.572441,88.852264 76.704620,89.707832 
	C76.189209,90.451477 76.064636,90.685471 75.777191,90.936890 
	C75.210007,90.922699 74.957870,91.071709 74.791740,91.366096 
	C74.791740,99.779732 74.791740,108.193367 74.791740,116.607010 
	C74.091316,116.612701 73.390884,116.618393 72.690460,116.624092 
	C72.690460,113.673393 72.690994,110.722702 72.690331,107.772011 
	C72.689217,102.774208 72.749588,97.774536 72.600258,92.781151 
	C72.583229,92.211746 71.388847,91.677559 70.424683,91.029572 
	C70.052177,90.367271 69.995354,89.802452 69.938530,89.237640 
	C63.023113,89.026459 56.108025,88.803200 49.192059,88.612015 
	C47.304642,88.559830 45.414558,88.604080 43.525700,88.604080 
	C43.502850,88.084366 43.480003,87.564644 43.457153,87.044930 
	C45.533226,86.951744 47.609039,86.852333 49.685417,86.766533 
	C56.348961,86.491180 63.012714,86.220871 69.983276,85.335342 
	C70.435402,84.552719 70.580635,84.383362 70.725861,84.214012 
	C71.378777,83.368713 72.576935,82.536736 72.597977,81.676003 
	C72.759613,75.060532 72.651764,68.438972 72.734985,61.820656 
	C72.749756,60.646149 73.264359,59.477932 73.548149,58.306808 
	C73.669670,58.371857 73.808319,58.417690 73.908325,58.506870 
	C74.030090,58.615448 74.119324,58.760498 74.180450,59.704674 
	C74.203644,60.787697 74.269028,61.055820 74.334404,61.323940 
z"/>
<path fill="#6F6447" opacity="1.000000" stroke="none" 
	d="
M74.006020,366.935608 
	C73.567581,365.514160 72.785011,364.101013 72.750641,362.669861 
	C72.606674,356.675964 72.553551,350.672760 72.727737,344.680573 
	C72.864922,339.961517 70.156143,338.299377 66.141876,338.218445 
	C58.578667,338.066010 51.010201,338.174500 43.443920,338.174500 
	C43.431709,337.534912 43.419498,336.895355 43.407288,336.255768 
	C51.865852,336.255768 60.324417,336.255768 69.522316,336.077942 
	C70.508614,335.269379 70.755569,334.638641 71.002518,334.007935 
	C71.566208,332.526093 72.580566,331.055176 72.616867,329.560516 
	C72.788780,322.481140 72.693626,315.395294 72.693626,308.311737 
	C73.269188,308.305817 73.844742,308.299896 74.420303,308.293945 
	C74.420303,316.125732 74.420303,323.957520 74.355728,332.559998 
	C74.966080,333.853973 75.641014,334.377289 76.192154,335.119873 
	C76.026001,335.725250 76.183250,335.994324 76.540131,336.146362 
	C83.939224,336.194397 91.340034,336.172577 98.735840,336.354340 
	C100.079147,336.387390 101.401978,337.253479 101.954529,337.812500 
	C98.745193,337.959503 96.315598,338.028961 93.885994,338.098450 
	C92.558922,338.118896 91.231857,338.139313 89.043945,338.030273 
	C85.198357,337.879242 82.201210,338.020050 79.232079,337.793549 
	C75.779823,337.530212 74.316017,339.071899 74.327278,342.362183 
	C74.308266,350.283630 74.289261,358.205109 74.136810,366.566711 
	C74.003357,367.006836 74.006020,366.935608 74.006020,366.935608 
z"/>
<path fill="#8F8668" opacity="1.000000" stroke="none" 
	d="
M156.907028,189.002518 
	C156.906982,203.634628 156.906982,217.767181 156.906982,231.899750 
	C156.320053,231.889999 155.733139,231.880234 155.146210,231.870483 
	C155.146210,212.027420 155.146210,192.184357 155.146210,172.341293 
	C155.733170,172.312622 156.320114,172.283951 156.907074,172.255280 
	C156.907074,177.671173 156.907074,183.087067 156.907028,189.002518 
z"/>
<path fill="#81795F" opacity="1.000000" stroke="none" 
	d="
M69.940033,268.940186 
	C63.985188,274.871429 58.272152,280.544647 52.559116,286.217834 
	C52.606346,286.255920 52.653576,286.293976 52.700806,286.332062 
	C66.805641,272.310699 80.910484,258.289368 95.015320,244.268036 
	C94.961357,244.196686 94.907387,244.125320 94.853424,244.053955 
	C86.629570,252.263351 78.405716,260.472748 69.940033,268.940186 
z"/>
<path fill="#8C866C" opacity="1.000000" stroke="none" 
	d="
M141.120834,80.879425 
	C151.521103,91.289558 161.671509,101.449463 171.821915,111.609367 
	C171.907028,111.525551 171.992126,111.441734 172.077240,111.357918 
	C158.013733,97.227760 143.950241,83.097595 129.886734,68.967430 
	C133.505203,72.678261 136.918335,76.983833 141.120834,80.879425 
z"/>
<path fill="#898067" opacity="1.000000" stroke="none" 
	d="
M221.153290,324.788391 
	C215.156036,322.538879 209.522934,320.440277 203.889832,318.341675 
	C204.132202,317.715088 204.374573,317.088531 204.616943,316.461975 
	C223.159958,323.203552 241.702972,329.945129 260.246002,336.686707 
	C260.014709,337.343964 259.783417,338.001190 259.552124,338.658447 
	C246.873886,334.085419 234.195663,329.512360 221.153290,324.788391 
z"/>
<path fill="#9F957D" opacity="1.000000" stroke="none" 
	d="
M74.642090,342.219330 
	C74.316017,339.071899 75.779823,337.530212 79.232079,337.793549 
	C82.201210,338.020050 85.198357,337.879242 88.646851,337.998169 
	C85.249374,338.372864 81.388153,338.650177 76.568680,338.996338 
	C83.167892,345.721100 89.146736,351.813690 95.125587,357.906281 
	C94.685432,358.358307 94.245277,358.810333 93.805130,359.262360 
	C92.683823,358.310486 91.528351,357.395691 90.447014,356.400391 
	C85.272636,351.637756 80.118347,346.853210 74.642090,342.219330 
z"/>
<path fill="#DFD9CB" opacity="1.000000" stroke="none" 
	d="
M249.008362,369.028015 
	C248.621643,370.588745 248.234924,372.149445 247.848221,373.710175 
	C247.273651,374.120331 246.699081,374.530487 246.124512,374.940643 
	C244.095947,372.825195 242.067383,370.709747 239.565536,368.100739 
	C238.933319,369.135498 237.765106,371.047485 236.229965,373.560059 
	C235.322952,371.573700 234.327087,369.392731 233.331238,367.211761 
	C235.607285,366.485382 237.843704,365.556549 240.172714,365.100586 
	C241.854080,364.771362 243.658539,365.070923 245.733917,365.441772 
	C246.214890,366.355804 246.370056,366.918121 246.525208,367.480408 
	C246.743393,367.417389 246.961578,367.354370 247.179764,367.291351 
	C247.056015,366.577271 246.932251,365.863190 246.808502,365.149109 
	C247.353683,365.145691 247.898849,365.142303 248.791946,365.526001 
	C249.131332,366.578949 249.122803,367.244812 249.070587,368.188354 
	C249.020691,368.653381 249.014526,368.840698 249.008362,369.028015 
z"/>
<path fill="#9A947D" opacity="1.000000" stroke="none" 
	d="
M229.315323,196.713226 
	C232.295761,194.233170 235.387787,191.873581 238.228394,189.242569 
	C241.787567,185.946030 245.140411,182.426758 248.582306,179.003616 
	C249.084412,179.508621 249.586517,180.013626 250.088623,180.518631 
	C244.031143,186.794098 237.973679,193.069550 231.648193,199.744202 
	C231.212677,200.166061 231.045151,200.188705 230.627777,199.971954 
	C230.023743,198.726089 229.669540,197.719666 229.315323,196.713226 
z"/>
<path fill="#8C836A" opacity="1.000000" stroke="none" 
	d="
M227.816879,205.235718 
	C226.251907,206.019989 224.368607,206.478912 223.177032,207.644806 
	C218.022888,212.687897 213.071121,217.937820 208.045746,223.112518 
	C207.528198,222.620132 207.010635,222.127762 206.493088,221.635376 
	C212.433151,215.312912 218.373215,208.990448 224.518250,202.292114 
	C225.140945,201.947311 225.558640,201.978394 226.174469,202.287521 
	C226.854019,203.455612 227.335449,204.345657 227.816879,205.235718 
z"/>
<path fill="#9F957D" opacity="1.000000" stroke="none" 
	d="
M76.965088,85.049042 
	C75.835632,84.567863 74.997162,83.993767 74.259354,83.009567 
	C75.685402,81.917068 77.252663,81.490654 78.293510,80.507141 
	C82.391945,76.634460 86.307068,72.568497 90.331207,68.615982 
	C91.396294,67.569855 92.607903,66.672905 93.752235,65.707466 
	C94.222107,66.197823 94.691986,66.688179 95.161858,67.178528 
	C89.193260,73.104393 83.224670,79.030258 76.965088,85.049042 
z"/>
<path fill="#6E6342" opacity="1.000000" stroke="none" 
	d="
M227.767242,205.610596 
	C227.335449,204.345657 226.854019,203.455612 226.178711,201.940414 
	C225.970840,200.852203 225.956833,200.389130 225.977936,199.655884 
	C226.601791,198.508499 227.190521,197.631271 227.779251,196.754044 
	C227.758179,196.116776 227.737106,195.479507 227.871887,194.103897 
	C227.945969,192.504333 227.864151,191.643097 227.782349,190.781876 
	C227.758636,187.881638 227.734924,184.981415 227.870697,181.213837 
	C227.948273,179.158066 227.866394,177.969635 227.784515,176.781219 
	C227.773468,175.436737 227.762436,174.092270 228.134613,172.350082 
	C228.710678,171.945877 228.903549,171.939362 229.096420,171.932831 
	C229.186569,179.894897 229.276718,187.856964 229.341095,196.266129 
	C229.669540,197.719666 230.023743,198.726089 230.665070,200.245392 
	C230.944778,201.127136 230.937363,201.496033 230.767059,202.183273 
	C230.163757,203.771408 229.723373,205.041199 229.282959,206.310974 
	C229.293701,213.913803 229.304428,221.516617 228.912750,229.576675 
	C228.315659,230.032562 228.121002,230.031219 227.926361,230.029892 
	C227.856247,229.335800 227.786133,228.641708 227.843018,227.230988 
	C227.927460,226.266907 227.884918,226.019485 227.842377,225.772079 
	C227.801926,221.223480 227.761475,216.674896 227.846649,211.312592 
	C227.927628,210.255035 227.882980,210.011185 227.838348,209.767319 
	C227.798096,208.506714 227.757843,207.246094 227.767242,205.610596 
z"/>
<path fill="#9A947D" opacity="1.000000" stroke="none" 
	d="
M229.606323,206.133667 
	C229.723373,205.041199 230.163757,203.771408 231.114471,202.192963 
	C232.084885,201.923340 232.544968,201.962357 233.005066,202.001373 
	C233.579254,203.336304 233.845535,204.961014 234.781448,205.955536 
	C238.640381,210.056091 242.723267,213.944962 246.677094,217.957657 
	C247.849823,219.147842 248.869614,220.488693 249.959488,221.760513 
	C249.571945,222.153015 249.184387,222.545517 248.796844,222.938004 
	C247.194778,221.530228 245.576019,220.140915 243.993774,218.711197 
	C239.298035,214.468109 234.616669,210.209122 229.606323,206.133667 
z"/>
<path fill="#898067" opacity="1.000000" stroke="none" 
	d="
M69.661484,89.475906 
	C69.995354,89.802452 70.052177,90.367271 70.128166,91.219193 
	C63.988277,97.130653 57.829220,102.755005 51.670162,108.379364 
	C51.499229,108.220093 51.328293,108.060829 51.157356,107.901558 
	C57.233051,101.839104 63.308746,95.776649 69.661484,89.475906 
z"/>
<path fill="#81795F" opacity="1.000000" stroke="none" 
	d="
M76.006256,90.954704 
	C76.064636,90.685471 76.189209,90.451477 76.556877,90.158089 
	C82.493439,96.343498 88.253098,102.623558 94.012749,108.903610 
	C93.854675,109.087029 93.696609,109.270454 93.538544,109.453873 
	C87.863846,103.774818 82.189140,98.095764 76.278717,91.932251 
	C76.042984,91.447784 76.006256,90.954704 76.006256,90.954704 
z"/>
<path fill="#8C836A" opacity="1.000000" stroke="none" 
	d="
M70.825066,333.727295 
	C70.755569,334.638641 70.508614,335.269379 70.040939,336.034088 
	C63.709415,329.770844 57.598595,323.373566 51.487774,316.976318 
	C51.945671,316.510620 52.403564,316.044922 52.861462,315.579254 
	C58.790176,321.535034 64.718895,327.490845 70.825066,333.727295 
z"/>
<path fill="#817B64" opacity="1.000000" stroke="none" 
	d="
M188.934296,153.032776 
	C187.910187,151.048080 186.886078,149.063370 185.855896,147.066879 
	C192.135422,143.514786 195.750061,143.574814 200.950836,147.736237 
	C198.571854,147.941284 196.564194,148.114319 194.116730,148.808655 
	C190.427597,148.915222 191.063797,151.220901 191.054886,153.074905 
	C191.054886,153.074905 191.010529,152.997925 190.686554,153.009827 
	C189.886475,153.025406 189.410385,153.029083 188.934296,153.032776 
z"/>
<path fill="#F5F2E7" opacity="1.000000" stroke="none" 
	d="
M144.875961,149.781143 
	C144.030197,152.047882 143.375198,154.429886 142.145798,156.464844 
	C141.947189,156.793579 138.851517,155.958023 137.736221,154.950699 
	C136.928726,154.221359 137.181778,152.317841 137.256683,150.480698 
	C138.034485,149.683395 138.517471,149.343338 139.353699,149.038544 
	C140.413086,149.024353 141.119247,148.974899 142.103943,148.950851 
	C142.568604,148.986801 142.754761,148.997360 143.120056,149.223419 
	C143.824799,149.552994 144.350372,149.667068 144.875961,149.781143 
z"/>
<path fill="#F5F2E7" opacity="1.000000" stroke="none" 
	d="
M159.961914,147.022308 
	C157.355240,146.859680 154.718338,146.872040 152.159851,146.430237 
	C151.368973,146.293655 150.791595,144.920776 150.116455,144.113953 
	C150.908722,143.843536 151.683792,143.493408 152.496552,143.318024 
	C154.729568,142.836136 156.978378,142.427551 159.605988,142.399185 
	C159.981339,144.213043 159.971634,145.617676 159.961914,147.022308 
z"/>
<path fill="#8C836A" opacity="1.000000" stroke="none" 
	d="
M218.812057,193.117844 
	C214.655914,189.042984 210.499771,184.968109 206.343643,180.893250 
	C206.808441,180.423126 207.273239,179.953003 207.738037,179.482880 
	C211.754868,183.406494 215.771698,187.330109 219.805969,191.822769 
	C219.486298,192.633820 219.149170,192.875824 218.812057,193.117844 
z"/>
<path fill="#81795F" opacity="1.000000" stroke="none" 
	d="
M241.380112,200.053528 
	C247.168427,200.033463 252.471191,200.033463 257.773956,200.033463 
	C257.754425,200.564896 257.734924,201.096344 257.715393,201.627777 
	C251.431503,201.627777 245.147614,201.627777 237.704712,201.627777 
	C239.399567,200.801987 240.147064,200.437775 241.380112,200.053528 
z"/>
<path fill="#9F957D" opacity="1.000000" stroke="none" 
	d="
M182.982849,149.895279 
	C182.866913,152.184647 182.752655,154.009506 182.638397,155.834381 
	C182.137161,155.809952 181.635941,155.785538 181.134705,155.761108 
	C181.134705,150.381287 181.134705,145.001465 181.134705,139.172195 
	C184.587784,142.148346 182.306305,146.133774 182.982849,149.895279 
z"/>
<path fill="#DFD9CB" opacity="1.000000" stroke="none" 
	d="
M258.390015,294.947815 
	C256.425781,294.392456 254.813934,293.741211 253.202118,293.089996 
	C253.658447,292.131195 253.933517,290.538147 254.608719,290.345184 
	C256.028076,289.939545 257.657501,290.268951 259.200714,290.296631 
	C259.047943,291.815063 258.895172,293.333527 258.390015,294.947815 
z"/>
<path fill="#CBC6B6" opacity="1.000000" stroke="none" 
	d="
M237.658401,270.647308 
	C236.937576,270.091583 236.474213,269.617310 236.010864,269.143036 
	C237.012512,268.289398 237.940018,266.879333 239.035934,266.733337 
	C240.212463,266.576630 241.547226,267.607758 242.812927,268.120575 
	C242.286835,269.129333 241.793198,270.156769 241.225632,271.141602 
	C240.644745,272.149658 239.991409,273.115906 239.256760,274.279480 
	C238.779282,273.015045 238.347580,271.871918 237.658401,270.647308 
z"/>
<path fill="#9F957D" opacity="1.000000" stroke="none" 
	d="
M144.919785,149.415588 
	C144.350372,149.667068 143.824799,149.552994 143.126556,148.845215 
	C142.950851,147.497421 142.947800,146.743378 142.944733,145.989319 
	C142.843811,143.927933 142.742889,141.866547 142.569931,138.333694 
	C144.733215,141.709610 146.297180,144.150253 147.826828,146.537338 
	C147.185135,147.100479 146.074371,148.075256 144.919785,149.415588 
z"/>
<path fill="#9A947D" opacity="1.000000" stroke="none" 
	d="
M191.490570,153.067261 
	C191.063797,151.220901 190.427597,148.915222 193.879257,149.108246 
	C195.375870,149.767029 196.670120,150.647507 197.964371,151.527985 
	C195.951675,152.038528 193.938965,152.549072 191.490570,153.067261 
z"/>
<path fill="#E9E5DB" opacity="1.000000" stroke="none" 
	d="
M142.692932,146.102570 
	C142.947800,146.743378 142.950851,147.497421 142.947418,148.629700 
	C142.754761,148.997360 142.568604,148.986801 141.960938,148.664383 
	C140.706680,148.314957 139.873932,148.277390 138.706085,148.225876 
	C137.341461,148.154083 136.311935,148.096252 135.282425,148.038422 
	C135.528702,147.331421 135.774994,146.624435 136.403931,145.950897 
	C137.907654,145.309662 139.028763,144.634949 140.149857,143.960236 
	C140.913620,144.712097 141.677368,145.463974 142.692932,146.102570 
z"/>
<path fill="#9F957D" opacity="1.000000" stroke="none" 
	d="
M136.021286,145.917435 
	C135.774994,146.624435 135.528702,147.331421 135.282425,148.038422 
	C136.311935,148.096252 137.341461,148.154083 138.699249,148.416779 
	C139.027527,148.621658 139.000458,149.003265 139.000458,149.003265 
	C138.517471,149.343338 138.034485,149.683395 137.259354,150.122528 
	C133.294327,150.819443 133.215286,148.124054 133.279358,145.306808 
	C134.493683,144.984512 135.259903,145.063553 136.020081,145.336273 
	C136.014038,145.529953 136.021286,145.917435 136.021286,145.917435 
z"/>
<path fill="#8C866C" opacity="1.000000" stroke="none" 
	d="
M136.403931,145.950897 
	C136.021286,145.917435 136.014038,145.529953 136.388580,145.262985 
	C136.842224,144.373016 136.921326,143.750000 137.000443,143.127014 
	C135.682312,143.053604 134.364182,142.980194 133.046051,142.906799 
	C135.392197,142.980621 137.738342,143.054459 140.117172,143.544281 
	C139.028763,144.634949 137.907654,145.309662 136.403931,145.950897 
z"/>
<path fill="#F5F2E7" opacity="1.000000" stroke="none" 
	d="
M133.030273,143.236282 
	C134.364182,142.980194 135.682312,143.053604 137.000443,143.127014 
	C136.921326,143.750000 136.842224,144.373016 136.394623,145.069305 
	C135.259903,145.063553 134.493683,144.984512 133.341751,144.894577 
	C132.975525,144.444366 132.994995,144.005066 133.030273,143.236282 
z"/>
<path fill="#DFD9CB" opacity="1.000000" stroke="none" 
	d="
M159.971649,147.394257 
	C159.971634,145.617676 159.981339,144.213043 159.963501,142.386948 
	C160.221771,144.782455 160.507553,147.599426 160.459167,150.506836 
	C160.083313,150.398254 160.041656,150.199249 160.000000,150.000229 
	C159.993805,149.255554 159.987595,148.510880 159.971649,147.394257 
z"/>
<path fill="#9F957D" opacity="1.000000" stroke="none" 
	d="
M94.231049,338.255676 
	C96.315598,338.028961 98.745193,337.959503 101.622589,337.976105 
	C99.572289,338.179108 97.074196,338.296021 94.231049,338.255676 
z"/>
<path fill="#9A947D" opacity="1.000000" stroke="none" 
	d="
M223.485840,197.801620 
	C222.520599,196.908249 221.555359,196.014862 220.776947,194.552155 
	C221.176254,193.749771 221.388748,193.516708 221.601242,193.283630 
	C222.520142,194.139328 223.439026,194.995010 224.193481,196.448883 
	C223.847961,197.298584 223.666901,197.550110 223.485840,197.801620 
z"/>
<path fill="#9A947D" opacity="1.000000" stroke="none" 
	d="
M227.471756,196.922211 
	C227.190521,197.631271 226.601791,198.508499 225.706970,199.673309 
	C225.220810,199.939484 225.040741,199.918060 224.860657,199.896652 
	C224.492645,199.335770 224.124649,198.774887 223.621246,198.007812 
	C223.666901,197.550110 223.847961,197.298584 224.361206,196.717972 
	C225.516998,196.622726 226.340622,196.856552 227.471756,196.922211 
z"/>
<path fill="#9A947D" opacity="1.000000" stroke="none" 
	d="
M188.945450,153.354614 
	C189.410385,153.029083 189.886475,153.025406 190.719330,153.039917 
	C190.749268,153.816971 190.422455,154.575821 190.095657,155.334686 
	C189.715973,154.781952 189.336288,154.229202 188.945450,153.354614 
z"/>
<path fill="#766D51" opacity="1.000000" stroke="none" 
	d="
M224.432404,199.966507 
	C225.040741,199.918060 225.220810,199.939484 225.671844,199.943481 
	C225.956833,200.389130 225.970840,200.852203 225.980606,201.662384 
	C225.558640,201.978394 225.140945,201.947311 224.409912,201.939026 
	C223.523483,201.753235 222.950363,201.544662 222.377258,201.336090 
	C222.919571,200.902863 223.461853,200.469604 224.432404,199.966507 
z"/>
<path fill="#B0AA9D" opacity="1.000000" stroke="none" 
	d="
M249.356522,369.034912 
	C249.014526,368.840698 249.020691,368.653381 249.378845,368.024353 
	C250.061981,367.245850 250.393127,366.909027 250.724274,366.572205 
	C251.094116,367.140869 251.463959,367.709534 251.833786,368.278198 
	C251.124084,368.532715 250.414383,368.787262 249.356522,369.034912 
z"/>
<path fill="#BEB598" opacity="1.000000" stroke="none" 
	d="
M76.315941,334.900574 
	C75.641014,334.377289 74.966080,333.853973 74.375458,333.006744 
	C74.954819,332.741119 75.449867,332.799438 76.354179,333.057983 
	C76.763435,333.258209 77.104553,333.550018 77.104553,333.550018 
	C77.219597,333.862823 77.334641,334.175659 77.082733,334.722717 
	C76.715775,334.956940 76.315941,334.900574 76.315941,334.900574 
z"/>
<path fill="#716647" opacity="1.000000" stroke="none" 
	d="
M70.047729,84.952728 
	C68.665314,84.630547 67.525352,84.077690 66.385391,83.524834 
	C66.919273,82.962662 67.453156,82.400497 67.987030,81.838326 
	C68.794563,82.429428 69.602089,83.020531 70.567734,83.912827 
	C70.580635,84.383362 70.435402,84.552719 70.047729,84.952728 
z"/>
<path fill="#9A947D" opacity="1.000000" stroke="none" 
	d="
M250.802292,366.368591 
	C250.393127,366.909027 250.061981,367.245850 249.422562,367.746643 
	C249.122803,367.244812 249.131332,366.578949 249.197876,365.584320 
	C249.797363,365.558685 250.338821,365.861816 250.802292,366.368591 
z"/>
<path fill="#716647" opacity="1.000000" stroke="none" 
	d="
M59.961288,75.287727 
	C59.181362,74.591141 58.830502,74.088585 58.479637,73.586021 
	C58.994308,73.475113 59.508980,73.364197 60.023647,73.253281 
	C60.145882,73.996109 60.268116,74.738930 59.961288,75.287727 
z"/>
<path fill="#81795F" opacity="1.000000" stroke="none" 
	d="
M233.395340,201.723206 
	C232.544968,201.962357 232.084885,201.923340 231.277374,201.874634 
	C230.937363,201.496033 230.944778,201.127136 230.914902,200.484802 
	C231.045151,200.188705 231.212677,200.166061 231.629517,200.098145 
	C232.514435,200.516953 233.150024,200.980988 233.395340,201.723206 
z"/>
<path fill="#9A947D" opacity="1.000000" stroke="none" 
	d="
M227.615143,177.067413 
	C227.866394,177.969635 227.948273,179.158066 227.908508,180.780731 
	C227.673141,179.927856 227.559448,178.640747 227.615143,177.067413 
z"/>
<path fill="#716647" opacity="1.000000" stroke="none" 
	d="
M52.119331,67.349182 
	C52.640423,67.010658 53.239574,67.015060 53.793743,67.175163 
	C53.881798,67.200607 53.767471,67.926544 53.746716,68.328629 
	C53.225315,68.133614 52.703918,67.938599 52.119331,67.349182 
z"/>
<path fill="#B0AA9D" opacity="1.000000" stroke="none" 
	d="
M159.718811,150.108185 
	C160.041656,150.199249 160.083313,150.398254 160.276642,150.862854 
	C159.801392,151.428009 159.174484,151.727600 158.547562,152.027206 
	C158.448212,151.846176 158.348862,151.665146 158.249512,151.484116 
	C158.645554,151.061447 159.041595,150.638794 159.718811,150.108185 
z"/>
<path fill="#81795F" opacity="1.000000" stroke="none" 
	d="
M246.649811,365.139709 
	C246.932251,365.863190 247.056015,366.577271 247.179764,367.291351 
	C246.961578,367.354370 246.743393,367.417389 246.525208,367.480408 
	C246.370056,366.918121 246.214890,366.355804 246.116455,365.461212 
	C246.173157,365.128937 246.491104,365.130280 246.649811,365.139709 
z"/>
<path fill="#9A947D" opacity="1.000000" stroke="none" 
	d="
M218.928864,193.350555 
	C219.149170,192.875824 219.486298,192.633820 219.967285,192.111038 
	C220.511444,192.170319 220.911728,192.510376 221.456635,193.067032 
	C221.388748,193.516708 221.176254,193.749771 220.591431,194.279755 
	C219.827957,194.245529 219.436813,193.914398 218.928864,193.350555 
z"/>
<path fill="#9A947D" opacity="1.000000" stroke="none" 
	d="
M227.615051,191.038116 
	C227.864151,191.643097 227.945969,192.504333 227.911469,193.786926 
	C227.679367,193.236984 227.563553,192.265671 227.615051,191.038116 
z"/>
<path fill="#766D51" opacity="1.000000" stroke="none" 
	d="
M53.810143,357.692688 
	C53.331112,358.044067 52.852093,358.395447 52.373077,358.746826 
	C52.313965,358.186066 52.254852,357.625305 52.718559,357.144958 
	C53.430965,357.381165 53.620556,357.536926 53.810143,357.692688 
z"/>
<path fill="#766D51" opacity="1.000000" stroke="none" 
	d="
M55.217682,356.200745 
	C54.903778,356.617126 54.589882,357.033508 54.043064,357.571289 
	C53.620556,357.536926 53.430965,357.381165 52.980415,356.965576 
	C53.083755,356.287842 53.448059,355.869873 54.275932,355.586670 
	C54.898899,355.881195 55.058292,356.040985 55.217682,356.200745 
z"/>
<path fill="#766D51" opacity="1.000000" stroke="none" 
	d="
M54.527214,355.457703 
	C54.624821,354.772766 54.934719,354.351501 55.739994,354.080933 
	C56.415485,354.386688 56.595596,354.541718 56.775703,354.696747 
	C56.432518,355.133667 56.089336,355.570618 55.481918,356.104126 
	C55.058292,356.040985 54.898899,355.881195 54.527214,355.457703 
z"/>
<path fill="#766D51" opacity="1.000000" stroke="none" 
	d="
M55.986053,353.976868 
	C56.151001,353.245026 56.565273,352.767975 57.402962,352.485565 
	C57.956562,352.856628 58.086742,353.033020 58.216927,353.209412 
	C57.897236,353.629456 57.577549,354.049530 57.016781,354.583160 
	C56.595596,354.541718 56.415485,354.386688 55.986053,353.976868 
z"/>
<path fill="#6F6447" opacity="1.000000" stroke="none" 
	d="
M76.605255,333.098969 
	C77.189301,332.526978 77.931534,332.114258 78.673767,331.701538 
	C78.440125,332.330048 78.206490,332.958557 77.538704,333.568542 
	C77.104553,333.550018 76.763435,333.258209 76.605255,333.098969 
z"/>
<path fill="#6F6447" opacity="1.000000" stroke="none" 
	d="
M93.760178,316.480164 
	C93.776611,317.112122 93.448517,317.513885 93.120422,317.915649 
	C93.218826,317.360413 93.317230,316.805206 93.760178,316.480164 
z"/>
<path fill="#9F957D" opacity="1.000000" stroke="none" 
	d="
M73.967911,367.010498 
	C73.932465,367.014160 74.237946,367.107788 74.237946,367.107788 
	C74.237946,367.107788 74.007889,367.117126 74.006958,367.026367 
	C74.006020,366.935608 74.003357,367.006836 73.967911,367.010498 
z"/>
<path fill="#716647" opacity="1.000000" stroke="none" 
	d="
M57.248993,71.751114 
	C57.298336,71.469124 57.596600,71.435928 57.894867,71.402740 
	C57.762547,71.601791 57.630230,71.800850 57.248993,71.751114 
z"/>
<path fill="#716647" opacity="1.000000" stroke="none" 
	d="
M63.749733,77.750000 
	C63.466576,77.700249 63.433151,77.400505 63.399723,77.100754 
	C63.599640,77.233833 63.799553,77.366920 63.749733,77.750000 
z"/>
<path fill="#716647" opacity="1.000000" stroke="none" 
	d="
M66.250000,80.750000 
	C66.199867,80.366585 66.399742,80.233177 66.599609,80.099762 
	C66.566406,80.399849 66.533203,80.699921 66.250000,80.750000 
z"/>
<path fill="#9F957D" opacity="1.000000" stroke="none" 
	d="
M76.216354,86.579056 
	C76.013237,86.573830 75.761192,86.362503 75.746376,86.071228 
	C75.983604,85.991280 76.167419,86.372963 76.216354,86.579056 
z"/>
<path fill="#BEB598" opacity="1.000000" stroke="none" 
	d="
M75.777191,90.936890 
	C76.006256,90.954704 76.042984,91.447784 76.048286,91.694992 
	C75.829758,91.877060 75.605927,91.811920 75.086914,91.556442 
	C74.957870,91.071709 75.210007,90.922699 75.777191,90.936890 
z"/>
<path fill="#8C836A" opacity="1.000000" stroke="none" 
	d="
M227.959930,230.335052 
	C228.121002,230.031219 228.315659,230.032562 228.803024,230.037476 
	C228.728317,230.240784 228.360916,230.440491 227.959930,230.335052 
z"/>
<path fill="#8C836A" opacity="1.000000" stroke="none" 
	d="
M227.707550,225.933701 
	C227.884918,226.019485 227.927460,226.266907 227.896698,226.884369 
	C227.715042,227.006149 227.583511,226.764618 227.508621,226.506668 
	C227.473557,226.385941 227.547943,226.233429 227.707550,225.933701 
z"/>
<path fill="#8C836A" opacity="1.000000" stroke="none" 
	d="
M227.704819,209.927979 
	C227.882980,210.011185 227.927628,210.255035 227.906006,210.865265 
	C227.750275,210.850632 227.660782,210.469635 227.704819,209.927979 
z"/>
<path fill="#9A947D" opacity="1.000000" stroke="none" 
	d="
M229.041168,171.649628 
	C228.903549,171.939362 228.710678,171.945877 228.227966,171.956741 
	C228.287369,171.762878 228.636627,171.564636 229.041168,171.649628 
z"/>
<path fill="#9F957D" opacity="1.000000" stroke="none" 
	d="
M74.484230,61.144035 
	C74.269028,61.055820 74.203644,60.787697 74.212387,60.111671 
	C74.402359,60.123890 74.518204,60.544010 74.484230,61.144035 
z"/>
<path fill="#766D51" opacity="1.000000" stroke="none" 
	d="
M198.627197,200.607971 
	C199.057602,200.990585 199.488007,201.373215 199.413498,201.478424 
	C198.814804,201.003342 198.721008,200.805664 198.627197,200.607971 
z"/>
<path fill="#8C836A" opacity="1.000000" stroke="none" 
	d="
M198.426208,200.775940 
	C198.721008,200.805664 198.814804,201.003342 198.968857,201.523621 
	C198.761154,201.545441 198.493179,201.244675 198.426208,200.775940 
z"/>
<path fill="#6F6447" opacity="1.000000" stroke="none" 
	d="
M79.760086,330.260254 
	C79.808403,330.637268 79.614906,330.768341 79.421417,330.899384 
	C79.453705,330.604340 79.486000,330.309296 79.760086,330.260254 
z"/>
<path fill="#766D51" opacity="1.000000" stroke="none" 
	d="
M57.704353,352.374817 
	C57.985069,351.944122 58.387806,351.818817 58.790543,351.693512 
	C58.799927,352.092621 58.809307,352.491760 58.517803,353.050140 
	C58.086742,353.033020 57.956562,352.856628 57.704353,352.374817 
z"/>
<path fill="#A6A18D" opacity="1.000000" stroke="none" 
	d="
M76.192154,335.119873 
	C76.315941,334.900574 76.715775,334.956940 76.918465,334.958527 
	C77.018829,335.154724 76.916504,335.349304 76.677155,335.845154 
	C76.183250,335.994324 76.026001,335.725250 76.192154,335.119873 
z"/>
<path fill="#EDEBDE" opacity="1.000000" stroke="none" 
	d="
M155.546127,28.612062 
	C155.772079,33.849747 152.659958,36.846889 149.187546,35.567455 
	C145.457092,34.192955 146.930527,30.954271 146.596542,28.561081 
	C146.456360,27.556479 148.223938,25.757618 149.508850,25.189054 
	C152.434479,23.894487 153.929657,26.193928 155.546127,28.612062 
M150.701904,32.593136 
	C154.900360,30.888514 154.907516,30.832376 151.052383,27.830133 
	C150.764603,29.340246 150.501465,30.721058 150.701904,32.593136 
z"/>
<path fill="#F5F2E7" opacity="1.000000" stroke="none" 
	d="
M205.002808,34.997948 
	C203.314774,34.797543 200.673203,35.166325 200.141541,34.275658 
	C199.104904,32.539024 198.773209,30.014704 199.125870,27.986315 
	C199.278732,27.107063 201.880096,26.067070 203.313995,26.143080 
	C205.172470,26.241592 208.022980,26.913519 208.584778,28.170576 
	C209.754974,30.789000 209.219055,33.738113 205.365936,34.517555 
	C204.838837,31.792896 204.683441,29.469231 204.528061,27.145563 
	C203.959976,27.227978 203.391891,27.310392 202.823822,27.392805 
	C201.464661,30.389488 200.876511,33.215504 205.002808,34.997948 
z"/>
<path fill="#CBC6B6" opacity="1.000000" stroke="none" 
	d="
M68.922440,30.018684 
	C69.035248,28.150999 69.147789,26.736067 69.244347,25.522118 
	C71.709694,25.522118 73.674362,25.522118 75.639023,25.522118 
	C75.647987,25.817682 75.656944,26.113249 75.665909,26.408813 
	C74.525131,26.579203 73.384354,26.749590 71.600418,27.016043 
	C72.747871,28.225256 73.600517,29.123793 74.702080,30.284637 
	C70.600197,31.756561 71.208374,33.443607 75.242455,34.903793 
	C69.137428,36.490669 69.050720,36.418926 68.922440,30.018684 
z"/>
<path fill="#8C866C" opacity="1.000000" stroke="none" 
	d="
M110.270699,33.108273 
	C109.911568,33.768993 109.552444,34.429710 109.193314,35.090431 
	C108.750648,34.987953 108.307976,34.885475 107.865311,34.782993 
	C108.228302,31.670107 108.591301,28.557220 109.424110,25.653767 
	C110.021591,26.264280 110.149254,26.665358 110.218796,27.375690 
	C110.195724,28.101469 110.230782,28.517994 110.217056,29.351580 
	C110.202408,30.881851 110.236549,31.995062 110.270699,33.108273 
z"/>
<path fill="#DFD9CB" opacity="1.000000" stroke="none" 
	d="
M110.603439,33.122696 
	C110.236549,31.995062 110.202408,30.881851 110.535141,29.373814 
	C111.538139,28.960520 112.174248,28.942053 112.928421,29.234655 
	C113.399704,29.798494 113.752937,30.051262 114.106171,30.304028 
	C114.034592,32.350609 114.330711,34.808617 110.603439,33.122696 
z"/>
<path fill="#DFD9CB" opacity="1.000000" stroke="none" 
	d="
M110.276917,27.066437 
	C110.149254,26.665358 110.021591,26.264280 109.783768,25.568092 
	C110.596573,25.248663 111.519539,25.224340 112.683456,25.772207 
	C112.897240,26.585548 112.870064,26.826702 112.523331,27.036293 
	C111.561493,27.025297 110.919205,27.045866 110.276917,27.066437 
z"/>
<path fill="#A6A18D" opacity="1.000000" stroke="none" 
	d="
M114.459633,26.509117 
	C114.637474,27.371355 114.815323,28.233593 114.464005,29.037155 
	C113.714111,28.771814 113.493378,28.565153 113.292084,28.238419 
	C113.311508,28.118343 113.280205,27.636999 113.580109,27.360306 
	C114.073219,26.892113 114.266426,26.700615 114.459633,26.509117 
z"/>
<path fill="#A6A18D" opacity="1.000000" stroke="none" 
	d="
M112.842888,27.067856 
	C112.870064,26.826702 112.897240,26.585548 112.963013,25.980364 
	C113.345833,25.786057 113.690063,25.955780 114.246964,26.317310 
	C114.266426,26.700615 114.073219,26.892113 113.488403,27.204224 
	C113.096794,27.324839 112.842888,27.067856 112.842888,27.067856 
z"/>
<path fill="#A6A18D" opacity="1.000000" stroke="none" 
	d="
M114.230446,30.150425 
	C113.752937,30.051262 113.399704,29.798494 113.058792,29.105389 
	C113.071098,28.665049 113.272652,28.358492 113.272652,28.358492 
	C113.493378,28.565153 113.714111,28.771814 114.243271,29.316364 
	C114.551704,29.654253 114.354721,29.996819 114.230446,30.150425 
z"/>
<path fill="#F5F2E7" opacity="1.000000" stroke="none" 
	d="
M158.360168,308.252319 
	C157.003815,308.984863 155.104813,310.075653 154.757950,309.706787 
	C152.259506,307.050018 152.821335,304.506500 156.514511,301.634247 
	C157.281769,304.025574 157.908920,305.980194 158.360168,308.252319 
z"/>
<path fill="#8C866C" opacity="1.000000" stroke="none" 
	d="
M139.353699,149.038544 
	C139.000458,149.003265 139.027527,148.621658 139.034363,148.430756 
	C139.873932,148.277390 140.706680,148.314957 141.682404,148.638992 
	C141.119247,148.974899 140.413086,149.024353 139.353699,149.038544 
z"/>
<path fill="#FCFBF8" opacity="1.000000" stroke="none" 
	d="
M150.470108,32.347504 
	C150.501465,30.721058 150.764603,29.340246 151.052383,27.830133 
	C154.907516,30.832376 154.900360,30.888514 150.470108,32.347504 
z"/>
<path fill="#FCFBF8" opacity="1.000000" stroke="none" 
	d="
M205.001404,34.998974 
	C200.876511,33.215504 201.464661,30.389488 202.823822,27.392805 
	C203.391891,27.310392 203.959976,27.227978 204.528061,27.145563 
	C204.683441,29.469231 204.838837,31.792896 204.995636,34.559784 
	C204.997025,35.003002 205.000000,35.000000 205.001404,34.998974 
z"/>
<path fill="#F5F2E7" opacity="1.000000" stroke="none" 
	d="
M113.292084,28.238419 
	C113.272652,28.358492 113.071098,28.665049 112.940735,28.794315 
	C112.174248,28.942053 111.538139,28.960520 110.583939,28.956753 
	C110.230782,28.517994 110.195724,28.101469 110.218796,27.375690 
	C110.919205,27.045866 111.561493,27.025297 112.523331,27.036293 
	C112.842888,27.067856 113.096794,27.324839 113.188499,27.480919 
	C113.280205,27.636999 113.311508,28.118343 113.292084,28.238419 
z"/>
</svg>