<svg width="15" height="20" viewBox="0 0 15 20" fill="none" xmlns="http://www.w3.org/2000/svg">
<path d="M7.5 19.3091C5.55 19.3091 3.89583 18.63 2.5375 17.2716C1.17917 15.9133 0.5 14.2591 0.5 12.3091C0.5 10.7425 0.9625 9.33829 1.8875 8.09662C2.8125 6.85495 4.025 6.01745 5.525 5.58412C5.19167 5.50079 4.86667 5.37995 4.55 5.22162C4.23333 5.06329 3.95 4.85912 3.7 4.60912C3.15 4.05912 2.79583 3.40495 2.6375 2.64662C2.47917 1.88829 2.44167 1.11745 2.525 0.334119C3.30833 0.250786 4.07917 0.288286 4.8375 0.446619C5.59583 0.604952 6.25 0.959119 6.8 1.50912C7.18333 1.89245 7.4625 2.32579 7.6375 2.80912C7.8125 3.29245 7.925 3.80079 7.975 4.33412C8.19167 3.81745 8.45417 3.32995 8.7625 2.87162C9.07083 2.41329 9.41667 1.99245 9.8 1.60912C9.98333 1.42579 10.2167 1.33412 10.5 1.33412C10.7833 1.33412 11.0167 1.42579 11.2 1.60912C11.3833 1.79245 11.475 2.02579 11.475 2.30912C11.475 2.59245 11.3833 2.82579 11.2 3.00912C10.8333 3.37579 10.5083 3.77995 10.225 4.22162C9.94167 4.66329 9.73333 5.13412 9.6 5.63412C11.0667 6.10079 12.25 6.94662 13.15 8.17162C14.05 9.39662 14.5 10.7758 14.5 12.3091C14.5 14.2591 13.8208 15.9133 12.4625 17.2716C11.1042 18.63 9.45 19.3091 7.5 19.3091ZM7.5 17.3091C8.88333 17.3091 10.0625 16.8216 11.0375 15.8466C12.0125 14.8716 12.5 13.6925 12.5 12.3091C12.5 10.9258 12.0125 9.74662 11.0375 8.77162C10.0625 7.79662 8.88333 7.30912 7.5 7.30912C6.11667 7.30912 4.9375 7.79662 3.9625 8.77162C2.9875 9.74662 2.5 10.9258 2.5 12.3091C2.5 13.6925 2.9875 14.8716 3.9625 15.8466C4.9375 16.8216 6.11667 17.3091 7.5 17.3091Z" fill="#323A27"/>
</svg>
