<svg width="5" height="17" viewBox="0 0 5 17" fill="none" xmlns="http://www.w3.org/2000/svg">
<path d="M2.5 16.1152C1.95 16.1152 1.47917 15.9194 1.0875 15.5277C0.695833 15.1361 0.5 14.6652 0.5 14.1152C0.5 13.5652 0.695833 13.0944 1.0875 12.7027C1.47917 12.3111 1.95 12.1152 2.5 12.1152C3.05 12.1152 3.52083 12.3111 3.9125 12.7027C4.30417 13.0944 4.5 13.5652 4.5 14.1152C4.5 14.6652 4.30417 15.1361 3.9125 15.5277C3.52083 15.9194 3.05 16.1152 2.5 16.1152ZM2.5 10.1152C1.95 10.1152 1.47917 9.9194 1.0875 9.52773C0.695833 9.13607 0.5 8.66523 0.5 8.11523C0.5 7.56523 0.695833 7.0944 1.0875 6.70273C1.47917 6.31107 1.95 6.11523 2.5 6.11523C3.05 6.11523 3.52083 6.31107 3.9125 6.70273C4.30417 7.0944 4.5 7.56523 4.5 8.11523C4.5 8.66523 4.30417 9.13607 3.9125 9.52773C3.52083 9.9194 3.05 10.1152 2.5 10.1152ZM2.5 4.11523C1.95 4.11523 1.47917 3.9194 1.0875 3.52773C0.695833 3.13607 0.5 2.66523 0.5 2.11523C0.5 1.56523 0.695833 1.0944 1.0875 0.702734C1.47917 0.311068 1.95 0.115234 2.5 0.115234C3.05 0.115234 3.52083 0.311068 3.9125 0.702734C4.30417 1.0944 4.5 1.56523 4.5 2.11523C4.5 2.66523 4.30417 3.13607 3.9125 3.52773C3.52083 3.9194 3.05 4.11523 2.5 4.11523Z" fill="#323A27" fill-opacity="0.5"/>
</svg>
