<svg width="21" height="23" viewBox="0 0 21 23" fill="none" xmlns="http://www.w3.org/2000/svg">
<path d="M16.875 22.5C15.9375 22.5 15.1406 22.1719 14.4844 21.5156C13.8281 20.8594 13.5 20.0625 13.5 19.125C13.5 19.0125 13.5281 18.75 13.5844 18.3375L5.68125 13.725C5.38125 14.0062 5.03438 14.2266 4.64062 14.3859C4.24687 14.5453 3.825 14.625 3.375 14.625C2.4375 14.625 1.64062 14.2969 0.984375 13.6406C0.328125 12.9844 0 12.1875 0 11.25C0 10.3125 0.328125 9.51562 0.984375 8.85938C1.64062 8.20312 2.4375 7.875 3.375 7.875C3.825 7.875 4.24687 7.95469 4.64062 8.11406C5.03438 8.27344 5.38125 8.49375 5.68125 8.775L13.5844 4.1625C13.5469 4.03125 13.5234 3.90469 13.5141 3.78281C13.5047 3.66094 13.5 3.525 13.5 3.375C13.5 2.4375 13.8281 1.64062 14.4844 0.984375C15.1406 0.328125 15.9375 0 16.875 0C17.8125 0 18.6094 0.328125 19.2656 0.984375C19.9219 1.64062 20.25 2.4375 20.25 3.375C20.25 4.3125 19.9219 5.10938 19.2656 5.76562C18.6094 6.42188 17.8125 6.75 16.875 6.75C16.425 6.75 16.0031 6.67031 15.6094 6.51094C15.2156 6.35156 14.8687 6.13125 14.5687 5.85L6.66563 10.4625C6.70312 10.5938 6.72656 10.7203 6.73594 10.8422C6.74531 10.9641 6.75 11.1 6.75 11.25C6.75 11.4 6.74531 11.5359 6.73594 11.6578C6.72656 11.7797 6.70312 11.9062 6.66563 12.0375L14.5687 16.65C14.8687 16.3687 15.2156 16.1484 15.6094 15.9891C16.0031 15.8297 16.425 15.75 16.875 15.75C17.8125 15.75 18.6094 16.0781 19.2656 16.7344C19.9219 17.3906 20.25 18.1875 20.25 19.125C20.25 20.0625 19.9219 20.8594 19.2656 21.5156C18.6094 22.1719 17.8125 22.5 16.875 22.5ZM16.875 20.25C17.1938 20.25 17.4609 20.1422 17.6766 19.9266C17.8922 19.7109 18 19.4438 18 19.125C18 18.8062 17.8922 18.5391 17.6766 18.3234C17.4609 18.1078 17.1938 18 16.875 18C16.5562 18 16.2891 18.1078 16.0734 18.3234C15.8578 18.5391 15.75 18.8062 15.75 19.125C15.75 19.4438 15.8578 19.7109 16.0734 19.9266C16.2891 20.1422 16.5562 20.25 16.875 20.25ZM3.375 12.375C3.69375 12.375 3.96094 12.2672 4.17656 12.0516C4.39219 11.8359 4.5 11.5688 4.5 11.25C4.5 10.9312 4.39219 10.6641 4.17656 10.4484C3.96094 10.2328 3.69375 10.125 3.375 10.125C3.05625 10.125 2.78906 10.2328 2.57344 10.4484C2.35781 10.6641 2.25 10.9312 2.25 11.25C2.25 11.5688 2.35781 11.8359 2.57344 12.0516C2.78906 12.2672 3.05625 12.375 3.375 12.375ZM16.875 4.5C17.1938 4.5 17.4609 4.39219 17.6766 4.17656C17.8922 3.96094 18 3.69375 18 3.375C18 3.05625 17.8922 2.78906 17.6766 2.57344C17.4609 2.35781 17.1938 2.25 16.875 2.25C16.5562 2.25 16.2891 2.35781 16.0734 2.57344C15.8578 2.78906 15.75 3.05625 15.75 3.375C15.75 3.69375 15.8578 3.96094 16.0734 4.17656C16.2891 4.39219 16.5562 4.5 16.875 4.5Z" fill="white"/>
</svg>
