        <svg
          class="nav-list__state"
          width="65"
          height="32"
          viewBox="0 0 65 32"
          fill="none"
          xmlns="http://www.w3.org/2000/svg"
        >
          <path
            d="M22.625 22.5V20.5H32.625V22.5H22.625ZM22.625 17.5V15.5H27.625V17.5H22.625ZM22.625 12.5V10.5H27.625V12.5H22.625ZM41.225 22.5L37.375 18.65C36.975 18.9333 36.5375 19.1458 36.0625 19.2875C35.5875 19.4292 35.1083 19.5 34.625 19.5C33.2417 19.5 32.0625 19.0125 31.0875 18.0375C30.1125 17.0625 29.625 15.8833 29.625 14.5C29.625 13.1167 30.1125 11.9375 31.0875 10.9625C32.0625 9.9875 33.2417 9.5 34.625 9.5C36.0083 9.5 37.1875 9.9875 38.1625 10.9625C39.1375 11.9375 39.625 13.1167 39.625 14.5C39.625 14.9833 39.5542 15.4625 39.4125 15.9375C39.2708 16.4125 39.0583 16.85 38.775 17.25L42.625 21.1L41.225 22.5ZM34.625 17.5C35.4583 17.5 36.1667 17.2083 36.75 16.625C37.3333 16.0417 37.625 15.3333 37.625 14.5C37.625 13.6667 37.3333 12.9583 36.75 12.375C36.1667 11.7917 35.4583 11.5 34.625 11.5C33.7917 11.5 33.0833 11.7917 32.5 12.375C31.9167 12.9583 31.625 13.6667 31.625 14.5C31.625 15.3333 31.9167 16.0417 32.5 16.625C33.0833 17.2083 33.7917 17.5 34.625 17.5Z"
            fill="#767676"
          />
        </svg>