<svg width="129" height="198" viewBox="0 0 129 198" fill="none" xmlns="http://www.w3.org/2000/svg">
<g filter="url(#filter0_d_2399_22819)">
<rect width="125" height="189.315" rx="8" fill="#323A27" shape-rendering="crispEdges"/>
<g filter="url(#filter1_d_2399_22819)">
<path d="M56 70C56 67.2386 58.2386 65 61 65H64C66.7614 65 69 67.2386 69 70V120C69 122.761 66.7614 125 64 125H61C58.2386 125 56 122.761 56 120V70Z" fill="white"/>
<path d="M37 101.343C34.2386 101.343 32 99.1042 32 96.3428V93.3428C32 90.5813 34.2386 88.3428 37 88.3428H87C89.7614 88.3428 92 90.5813 92 93.3428V96.3428C92 99.1042 89.7614 101.343 87 101.343H37Z" fill="white"/>
</g>
</g>
<defs>
<filter id="filter0_d_2399_22819" x="-4" y="0" width="133" height="197.315" filterUnits="userSpaceOnUse" color-interpolation-filters="sRGB">
<feFlood flood-opacity="0" result="BackgroundImageFix"/>
<feColorMatrix in="SourceAlpha" type="matrix" values="0 0 0 0 0 0 0 0 0 0 0 0 0 0 0 0 0 0 127 0" result="hardAlpha"/>
<feOffset dy="4"/>
<feGaussianBlur stdDeviation="2"/>
<feComposite in2="hardAlpha" operator="out"/>
<feColorMatrix type="matrix" values="0 0 0 0 0 0 0 0 0 0 0 0 0 0 0 0 0 0 0.25 0"/>
<feBlend mode="normal" in2="BackgroundImageFix" result="effect1_dropShadow_2399_22819"/>
<feBlend mode="normal" in="SourceGraphic" in2="effect1_dropShadow_2399_22819" result="shape"/>
</filter>
<filter id="filter1_d_2399_22819" x="28" y="65" width="68" height="68" filterUnits="userSpaceOnUse" color-interpolation-filters="sRGB">
<feFlood flood-opacity="0" result="BackgroundImageFix"/>
<feColorMatrix in="SourceAlpha" type="matrix" values="0 0 0 0 0 0 0 0 0 0 0 0 0 0 0 0 0 0 127 0" result="hardAlpha"/>
<feOffset dy="4"/>
<feGaussianBlur stdDeviation="2"/>
<feComposite in2="hardAlpha" operator="out"/>
<feColorMatrix type="matrix" values="0 0 0 0 0 0 0 0 0 0 0 0 0 0 0 0 0 0 0.25 0"/>
<feBlend mode="normal" in2="BackgroundImageFix" result="effect1_dropShadow_2399_22819"/>
<feBlend mode="normal" in="SourceGraphic" in2="effect1_dropShadow_2399_22819" result="shape"/>
</filter>
</defs>
</svg>
