<svg width="21" height="21" viewBox="0 0 21 21" fill="none" xmlns="http://www.w3.org/2000/svg">
<path d="M10.375 20.8809C9.00833 20.8809 7.71667 20.6184 6.5 20.0934C5.28333 19.5684 4.22083 18.8517 3.3125 17.9434C2.40417 17.035 1.6875 15.9725 1.1625 14.7559C0.6375 13.5392 0.375 12.2475 0.375 10.8809C0.375 9.49753 0.6375 8.20169 1.1625 6.99336C1.6875 5.78503 2.40417 4.72669 3.3125 3.81836C4.22083 2.91003 5.28333 2.19336 6.5 1.66836C7.71667 1.14336 9.00833 0.880859 10.375 0.880859C11.7583 0.880859 13.0542 1.14336 14.2625 1.66836C15.4708 2.19336 16.5292 2.91003 17.4375 3.81836C18.3458 4.72669 19.0625 5.78503 19.5875 6.99336C20.1125 8.20169 20.375 9.49753 20.375 10.8809C20.375 12.2475 20.1125 13.5392 19.5875 14.7559C19.0625 15.9725 18.3458 17.035 17.4375 17.9434C16.5292 18.8517 15.4708 19.5684 14.2625 20.0934C13.0542 20.6184 11.7583 20.8809 10.375 20.8809ZM10.375 18.8309C10.8083 18.2309 11.1833 17.6059 11.5 16.9559C11.8167 16.3059 12.075 15.6142 12.275 14.8809H8.475C8.675 15.6142 8.93333 16.3059 9.25 16.9559C9.56667 17.6059 9.94167 18.2309 10.375 18.8309ZM7.775 18.4309C7.475 17.8809 7.2125 17.31 6.9875 16.7184C6.7625 16.1267 6.575 15.5142 6.425 14.8809H3.475C3.95833 15.7142 4.5625 16.4392 5.2875 17.0559C6.0125 17.6725 6.84167 18.1309 7.775 18.4309ZM12.975 18.4309C13.9083 18.1309 14.7375 17.6725 15.4625 17.0559C16.1875 16.4392 16.7917 15.7142 17.275 14.8809H14.325C14.175 15.5142 13.9875 16.1267 13.7625 16.7184C13.5375 17.31 13.275 17.8809 12.975 18.4309ZM2.625 12.8809H6.025C5.975 12.5475 5.9375 12.2184 5.9125 11.8934C5.8875 11.5684 5.875 11.2309 5.875 10.8809C5.875 10.5309 5.8875 10.1934 5.9125 9.86836C5.9375 9.54336 5.975 9.21419 6.025 8.88086H2.625C2.54167 9.21419 2.47917 9.54336 2.4375 9.86836C2.39583 10.1934 2.375 10.5309 2.375 10.8809C2.375 11.2309 2.39583 11.5684 2.4375 11.8934C2.47917 12.2184 2.54167 12.5475 2.625 12.8809ZM8.025 12.8809H12.725C12.775 12.5475 12.8125 12.2184 12.8375 11.8934C12.8625 11.5684 12.875 11.2309 12.875 10.8809C12.875 10.5309 12.8625 10.1934 12.8375 9.86836C12.8125 9.54336 12.775 9.21419 12.725 8.88086H8.025C7.975 9.21419 7.9375 9.54336 7.9125 9.86836C7.8875 10.1934 7.875 10.5309 7.875 10.8809C7.875 11.2309 7.8875 11.5684 7.9125 11.8934C7.9375 12.2184 7.975 12.5475 8.025 12.8809ZM14.725 12.8809H18.125C18.2083 12.5475 18.2708 12.2184 18.3125 11.8934C18.3542 11.5684 18.375 11.2309 18.375 10.8809C18.375 10.5309 18.3542 10.1934 18.3125 9.86836C18.2708 9.54336 18.2083 9.21419 18.125 8.88086H14.725C14.775 9.21419 14.8125 9.54336 14.8375 9.86836C14.8625 10.1934 14.875 10.5309 14.875 10.8809C14.875 11.2309 14.8625 11.5684 14.8375 11.8934C14.8125 12.2184 14.775 12.5475 14.725 12.8809ZM14.325 6.88086H17.275C16.7917 6.04753 16.1875 5.32253 15.4625 4.70586C14.7375 4.08919 13.9083 3.63086 12.975 3.33086C13.275 3.88086 13.5375 4.45169 13.7625 5.04336C13.9875 5.63503 14.175 6.24753 14.325 6.88086ZM8.475 6.88086H12.275C12.075 6.14753 11.8167 5.45586 11.5 4.80586C11.1833 4.15586 10.8083 3.53086 10.375 2.93086C9.94167 3.53086 9.56667 4.15586 9.25 4.80586C8.93333 5.45586 8.675 6.14753 8.475 6.88086ZM3.475 6.88086H6.425C6.575 6.24753 6.7625 5.63503 6.9875 5.04336C7.2125 4.45169 7.475 3.88086 7.775 3.33086C6.84167 3.63086 6.0125 4.08919 5.2875 4.70586C4.5625 5.32253 3.95833 6.04753 3.475 6.88086Z" fill="#323A27"/>
</svg>
