<svg width="21" height="14" viewBox="0 0 21 14" fill="none" xmlns="http://www.w3.org/2000/svg">
<path d="M0.625 13.3809V11.3809H10.625V13.3809H0.625ZM0.625 8.38086V6.38086H5.625V8.38086H0.625ZM0.625 3.38086V1.38086H5.625V3.38086H0.625ZM19.225 13.3809L15.375 9.53086C14.975 9.81419 14.5375 10.0267 14.0625 10.1684C13.5875 10.31 13.1083 10.3809 12.625 10.3809C11.2417 10.3809 10.0625 9.89336 9.0875 8.91836C8.1125 7.94336 7.625 6.76419 7.625 5.38086C7.625 3.99753 8.1125 2.81836 9.0875 1.84336C10.0625 0.868359 11.2417 0.380859 12.625 0.380859C14.0083 0.380859 15.1875 0.868359 16.1625 1.84336C17.1375 2.81836 17.625 3.99753 17.625 5.38086C17.625 5.86419 17.5542 6.34336 17.4125 6.81836C17.2708 7.29336 17.0583 7.73086 16.775 8.13086L20.625 11.9809L19.225 13.3809ZM12.625 8.38086C13.4583 8.38086 14.1667 8.08919 14.75 7.50586C15.3333 6.92253 15.625 6.21419 15.625 5.38086C15.625 4.54753 15.3333 3.83919 14.75 3.25586C14.1667 2.67253 13.4583 2.38086 12.625 2.38086C11.7917 2.38086 11.0833 2.67253 10.5 3.25586C9.91667 3.83919 9.625 4.54753 9.625 5.38086C9.625 6.21419 9.91667 6.92253 10.5 7.50586C11.0833 8.08919 11.7917 8.38086 12.625 8.38086Z" fill="#323A27"/>
</svg>
