        <svg
          class="nav-list__state2"
          width="65"
          height="32"
          viewBox="0 0 65 32"
          fill="none"
          xmlns="http://www.w3.org/2000/svg"
        >
          <path
            d="M32.375 26C31.0083 26 29.7167 25.7375 28.5 25.2125C27.2833 24.6875 26.2208 23.9708 25.3125 23.0625C24.4042 22.1542 23.6875 21.0917 23.1625 19.875C22.6375 18.6583 22.375 17.3667 22.375 16C22.375 14.6167 22.6375 13.3208 23.1625 12.1125C23.6875 10.9042 24.4042 9.84583 25.3125 8.9375C26.2208 8.02917 27.2833 7.3125 28.5 6.7875C29.7167 6.2625 31.0083 6 32.375 6C33.7583 6 35.0542 6.2625 36.2625 6.7875C37.4708 7.3125 38.5292 8.02917 39.4375 8.9375C40.3458 9.84583 41.0625 10.9042 41.5875 12.1125C42.1125 13.3208 42.375 14.6167 42.375 16C42.375 17.3667 42.1125 18.6583 41.5875 19.875C41.0625 21.0917 40.3458 22.1542 39.4375 23.0625C38.5292 23.9708 37.4708 24.6875 36.2625 25.2125C35.0542 25.7375 33.7583 26 32.375 26ZM32.375 23.95C32.8083 23.35 33.1833 22.725 33.5 22.075C33.8167 21.425 34.075 20.7333 34.275 20H30.475C30.675 20.7333 30.9333 21.425 31.25 22.075C31.5667 22.725 31.9417 23.35 32.375 23.95ZM29.775 23.55C29.475 23 29.2125 22.4292 28.9875 21.8375C28.7625 21.2458 28.575 20.6333 28.425 20H25.475C25.9583 20.8333 26.5625 21.5583 27.2875 22.175C28.0125 22.7917 28.8417 23.25 29.775 23.55ZM34.975 23.55C35.9083 23.25 36.7375 22.7917 37.4625 22.175C38.1875 21.5583 38.7917 20.8333 39.275 20H36.325C36.175 20.6333 35.9875 21.2458 35.7625 21.8375C35.5375 22.4292 35.275 23 34.975 23.55ZM24.625 18H28.025C27.975 17.6667 27.9375 17.3375 27.9125 17.0125C27.8875 16.6875 27.875 16.35 27.875 16C27.875 15.65 27.8875 15.3125 27.9125 14.9875C27.9375 14.6625 27.975 14.3333 28.025 14H24.625C24.5417 14.3333 24.4792 14.6625 24.4375 14.9875C24.3958 15.3125 24.375 15.65 24.375 16C24.375 16.35 24.3958 16.6875 24.4375 17.0125C24.4792 17.3375 24.5417 17.6667 24.625 18ZM30.025 18H34.725C34.775 17.6667 34.8125 17.3375 34.8375 17.0125C34.8625 16.6875 34.875 16.35 34.875 16C34.875 15.65 34.8625 15.3125 34.8375 14.9875C34.8125 14.6625 34.775 14.3333 34.725 14H30.025C29.975 14.3333 29.9375 14.6625 29.9125 14.9875C29.8875 15.3125 29.875 15.65 29.875 16C29.875 16.35 29.8875 16.6875 29.9125 17.0125C29.9375 17.3375 29.975 17.6667 30.025 18ZM36.725 18H40.125C40.2083 17.6667 40.2708 17.3375 40.3125 17.0125C40.3542 16.6875 40.375 16.35 40.375 16C40.375 15.65 40.3542 15.3125 40.3125 14.9875C40.2708 14.6625 40.2083 14.3333 40.125 14H36.725C36.775 14.3333 36.8125 14.6625 36.8375 14.9875C36.8625 15.3125 36.875 15.65 36.875 16C36.875 16.35 36.8625 16.6875 36.8375 17.0125C36.8125 17.3375 36.775 17.6667 36.725 18ZM36.325 12H39.275C38.7917 11.1667 38.1875 10.4417 37.4625 9.825C36.7375 9.20833 35.9083 8.75 34.975 8.45C35.275 9 35.5375 9.57083 35.7625 10.1625C35.9875 10.7542 36.175 11.3667 36.325 12ZM30.475 12H34.275C34.075 11.2667 33.8167 10.575 33.5 9.925C33.1833 9.275 32.8083 8.65 32.375 8.05C31.9417 8.65 31.5667 9.275 31.25 9.925C30.9333 10.575 30.675 11.2667 30.475 12ZM25.475 12H28.425C28.575 11.3667 28.7625 10.7542 28.9875 10.1625C29.2125 9.57083 29.475 9 29.775 8.45C28.8417 8.75 28.0125 9.20833 27.2875 9.825C26.5625 10.4417 25.9583 11.1667 25.475 12Z"
            fill="#767676"
          />
        </svg>