<svg width="13" height="12" viewBox="0 0 13 12" fill="none" xmlns="http://www.w3.org/2000/svg">
<path d="M4.74992 11.9484H9.99992C10.4841 11.9484 10.8983 11.6567 11.0733 11.2367L12.8349 7.12424C12.8874 6.99007 12.9166 6.85007 12.9166 6.6984V5.53174C12.9166 4.89007 12.3916 4.36507 11.7499 4.36507H8.06909L8.62325 1.69924L8.64075 1.51257C8.64075 1.2734 8.54159 1.05174 8.38409 0.894238L7.76575 0.281738L3.92159 4.1259C3.71159 4.3359 3.58325 4.62757 3.58325 4.9484V10.7817C3.58325 11.4234 4.10825 11.9484 4.74992 11.9484ZM4.74992 4.9484L7.28159 2.41674L6.49992 5.53174H11.7499V6.6984L9.99992 10.7817H4.74992V4.9484ZM0.083252 4.9484H2.41659V11.9484H0.083252V4.9484Z" fill="#323A27" fill-opacity="0.3"/>
</svg>
