<svg width="75" height="31" viewBox="0 0 75 31" fill="none" xmlns="http://www.w3.org/2000/svg">
<rect x="0.5" y="0.25" width="74" height="30" rx="12" fill="#323A27"/>
<path d="M18.3379 10.4473V11.6641H14.8105V13.6875H18.1191V14.877H14.8105V17.2832C16.335 17.2695 17.3945 17.2148 18.6523 17.0234L18.7754 18.2676C17.3398 18.5137 16.123 18.5547 14.1953 18.5547H13.3613V10.4473H18.3379ZM23.5742 9.10742V21.4668H22.1113V15.1914H20.8398V20.8652H19.4043V9.32617H20.8398V13.9609H22.1113V9.10742H23.5742ZM34.8048 10.3105V11.7051C34.8048 13.3594 34.8048 15.0684 34.3537 17.666L32.8088 17.5293C33.2873 15.0957 33.2873 13.3047 33.2873 11.7051V11.541H26.1642V10.3105H34.8048ZM36.2404 18.5273V19.7715H24.9748V18.5273H36.2404ZM44.7563 10.3516V20.25H42.9653V12.0879H42.9106L40.6001 13.5645V11.9375L43.0473 10.3516H44.7563Z" fill="white"/>
<path d="M60.8327 11.916L54.166 18.5827M60.8327 18.5827L54.166 11.916" stroke="white" stroke-width="2" stroke-linecap="round"/>
</svg>
