<svg width="30" height="29" viewBox="0 0 30 29" fill="none" xmlns="http://www.w3.org/2000/svg">
<path d="M15 28.4996L12.825 26.5496C10.3 24.2746 8.2125 22.3121 6.5625 20.6621C4.9125 19.0121 3.6 17.5309 2.625 16.2184C1.65 14.9059 0.96875 13.6996 0.58125 12.5996C0.19375 11.4996 0 10.3746 0 9.22461C0 6.87461 0.7875 4.91211 2.3625 3.33711C3.9375 1.76211 5.9 0.974609 8.25 0.974609C9.55 0.974609 10.7875 1.24961 11.9625 1.79961C13.1375 2.34961 14.15 3.12461 15 4.12461C15.85 3.12461 16.8625 2.34961 18.0375 1.79961C19.2125 1.24961 20.45 0.974609 21.75 0.974609C24.1 0.974609 26.0625 1.76211 27.6375 3.33711C29.2125 4.91211 30 6.87461 30 9.22461C30 10.3746 29.8063 11.4996 29.4188 12.5996C29.0313 13.6996 28.35 14.9059 27.375 16.2184C26.4 17.5309 25.0875 19.0121 23.4375 20.6621C21.7875 22.3121 19.7 24.2746 17.175 26.5496L15 28.4996ZM15 24.4496C17.4 22.2996 19.375 20.4559 20.925 18.9184C22.475 17.3809 23.7 16.0434 24.6 14.9059C25.5 13.7684 26.125 12.7559 26.475 11.8684C26.825 10.9809 27 10.0996 27 9.22461C27 7.72461 26.5 6.47461 25.5 5.47461C24.5 4.47461 23.25 3.97461 21.75 3.97461C20.575 3.97461 19.4875 4.30586 18.4875 4.96836C17.4875 5.63086 16.8 6.47461 16.425 7.49961H13.575C13.2 6.47461 12.5125 5.63086 11.5125 4.96836C10.5125 4.30586 9.425 3.97461 8.25 3.97461C6.75 3.97461 5.5 4.47461 4.5 5.47461C3.5 6.47461 3 7.72461 3 9.22461C3 10.0996 3.175 10.9809 3.525 11.8684C3.875 12.7559 4.5 13.7684 5.4 14.9059C6.3 16.0434 7.525 17.3809 9.075 18.9184C10.625 20.4559 12.6 22.2996 15 24.4496Z" fill="white"/>
</svg>
