<svg width="18" height="19" viewBox="0 0 18 19" fill="none" xmlns="http://www.w3.org/2000/svg">
<path d="M9 18.8809C6.7 18.8809 4.69583 18.1184 2.9875 16.5934C1.27917 15.0684 0.3 13.1642 0.05 10.8809H2.1C2.33333 12.6142 3.10417 14.0475 4.4125 15.1809C5.72083 16.3142 7.25 16.8809 9 16.8809C10.95 16.8809 12.6042 16.2017 13.9625 14.8434C15.3208 13.485 16 11.8309 16 9.88086C16 7.93086 15.3208 6.27669 13.9625 4.91836C12.6042 3.56003 10.95 2.88086 9 2.88086C7.85 2.88086 6.775 3.14753 5.775 3.68086C4.775 4.21419 3.93333 4.94753 3.25 5.88086H6V7.88086H0V1.88086H2V4.23086C2.85 3.16419 3.8875 2.33919 5.1125 1.75586C6.3375 1.17253 7.63333 0.880859 9 0.880859C10.25 0.880859 11.4208 1.11836 12.5125 1.59336C13.6042 2.06836 14.5542 2.71003 15.3625 3.51836C16.1708 4.32669 16.8125 5.27669 17.2875 6.36836C17.7625 7.46003 18 8.63086 18 9.88086C18 11.1309 17.7625 12.3017 17.2875 13.3934C16.8125 14.485 16.1708 15.435 15.3625 16.2434C14.5542 17.0517 13.6042 17.6934 12.5125 18.1684C11.4208 18.6434 10.25 18.8809 9 18.8809ZM11.8 14.0809L8 10.2809V4.88086H10V9.48086L13.2 12.6809L11.8 14.0809Z" fill="#B2B2B2"/>
</svg>
