<svg width="81" height="120" viewBox="0 0 81 120" fill="none" xmlns="http://www.w3.org/2000/svg">
<rect x="0.5" width="80" height="120" rx="4" fill="#323A27"/>
<path d="M35.7004 54.1183V55.1183C36.0561 55.1183 36.385 54.9294 36.5642 54.6222L35.7004 54.1183ZM37.3804 51.2383V50.2383C37.0247 50.2383 36.6958 50.4272 36.5166 50.7344L37.3804 51.2383ZM43.6204 51.2383L44.4842 50.7344C44.305 50.4272 43.9761 50.2383 43.6204 50.2383V51.2383ZM45.3004 54.1183L44.4366 54.6222C44.6158 54.9294 44.9447 55.1183 45.3004 55.1183V54.1183ZM31.9004 66.3583V56.5183H29.9004V66.3583H31.9004ZM33.3004 55.1183H35.7004V53.1183H33.3004V55.1183ZM36.5642 54.6222L38.2442 51.7422L36.5166 50.7344L34.8366 53.6144L36.5642 54.6222ZM37.3804 52.2383H43.6204V50.2383H37.3804V52.2383ZM42.7566 51.7422L44.4366 54.6222L46.1642 53.6144L44.4842 50.7344L42.7566 51.7422ZM45.3004 55.1183H47.7004V53.1183H45.3004V55.1183ZM49.1004 56.5183V66.3583H51.1004V56.5183H49.1004ZM49.1004 66.3583C49.1004 67.1315 48.4736 67.7583 47.7004 67.7583V69.7583C49.5782 69.7583 51.1004 68.2361 51.1004 66.3583H49.1004ZM47.7004 55.1183C48.4736 55.1183 49.1004 55.7451 49.1004 56.5183H51.1004C51.1004 54.6405 49.5782 53.1183 47.7004 53.1183V55.1183ZM31.9004 56.5183C31.9004 55.7451 32.5272 55.1183 33.3004 55.1183V53.1183C31.4226 53.1183 29.9004 54.6405 29.9004 56.5183H31.9004ZM33.3004 67.7583C32.5272 67.7583 31.9004 67.1315 31.9004 66.3583H29.9004C29.9004 68.236 31.4226 69.7583 33.3004 69.7583V67.7583ZM43.1004 60.8383C43.1004 62.2742 41.9363 63.4383 40.5004 63.4383V65.4383C43.0409 65.4383 45.1004 63.3788 45.1004 60.8383H43.1004ZM40.5004 63.4383C39.0644 63.4383 37.9004 62.2742 37.9004 60.8383H35.9004C35.9004 63.3788 37.9599 65.4383 40.5004 65.4383V63.4383ZM37.9004 60.8383C37.9004 59.4023 39.0644 58.2383 40.5004 58.2383V56.2383C37.9599 56.2383 35.9004 58.2978 35.9004 60.8383H37.9004ZM40.5004 58.2383C41.9363 58.2383 43.1004 59.4023 43.1004 60.8383H45.1004C45.1004 58.2978 43.0409 56.2383 40.5004 56.2383V58.2383ZM47.7004 67.7583H33.3004V69.7583H47.7004V67.7583Z" fill="#E5EDDB"/>
</svg>
