<svg width="15" height="19" viewBox="0 0 15 19" fill="none" xmlns="http://www.w3.org/2000/svg">
<path d="M8.96814 15.2209C8.96814 16.5248 10.0252 17.5818 11.3291 17.5818C12.633 17.5818 13.69 16.5248 13.69 15.2209C13.69 13.917 12.633 12.86 11.3291 12.86C10.0252 12.86 8.96814 13.917 8.96814 15.2209ZM8.96814 15.2209H5.0005C2.79144 15.2209 1.00061 13.4302 1.0005 11.2211L1 1M8.52547 5.77719H1M13.69 5.77719C13.69 7.0811 12.633 8.13813 11.3291 8.13813C10.0252 8.13813 8.96814 7.0811 8.96814 5.77719C8.96814 4.47329 10.0252 3.41626 11.3291 3.41626C12.633 3.41626 13.69 4.47329 13.69 5.77719Z" stroke="white" stroke-width="2" stroke-linecap="round"/>
</svg>
