<svg width="23" height="22" viewBox="0 0 23 22" fill="none" xmlns="http://www.w3.org/2000/svg">
<path d="M5.74039 10.9066C5.74039 11.967 4.88078 12.8266 3.82039 12.8266C2.76 12.8266 1.90039 11.967 1.90039 10.9066C1.90039 9.84625 2.76 8.98664 3.82039 8.98664C4.88078 8.98664 5.74039 9.84625 5.74039 10.9066ZM5.74039 10.9066H17.2604M17.2604 10.9066C17.2604 11.967 18.12 12.8266 19.1804 12.8266C20.2408 12.8266 21.1004 11.967 21.1004 10.9066C21.1004 9.84625 20.2408 8.98664 19.1804 8.98664C18.12 8.98664 17.2604 9.84625 17.2604 10.9066ZM17.2604 3.22664C17.2604 4.28703 18.12 5.14664 19.1804 5.14664C20.2408 5.14664 21.1004 4.28703 21.1004 3.22664C21.1004 2.16625 20.2408 1.30664 19.1804 1.30664C18.12 1.30664 17.2604 2.16625 17.2604 3.22664ZM17.2604 3.22664H11.7404C11.2102 3.22664 10.7804 3.65645 10.7804 4.18664V17.6266C10.7804 18.1568 11.2102 18.5866 11.7404 18.5866H17.2604M17.2604 18.5866C17.2604 19.647 18.12 20.5066 19.1804 20.5066C20.2408 20.5066 21.1004 19.647 21.1004 18.5866C21.1004 17.5263 20.2408 16.6666 19.1804 16.6666C18.12 16.6666 17.2604 17.5263 17.2604 18.5866Z" stroke="white" stroke-width="2" stroke-linecap="round"/>
</svg>
