<svg width="17" height="21" viewBox="0 0 17 21" fill="none" xmlns="http://www.w3.org/2000/svg">
<path d="M0.5 20.2V6.19995C0.5 5.64995 0.695833 5.17912 1.0875 4.78745C1.47917 4.39578 1.95 4.19995 2.5 4.19995H10.5C11.05 4.19995 11.5208 4.39578 11.9125 4.78745C12.3042 5.17912 12.5 5.64995 12.5 6.19995V20.2L6.5 17.2L0.5 20.2ZM2.5 17.175L6.5 15.025L10.5 17.175V6.19995H2.5V17.175ZM14.5 16.2V2.19995H3.5V0.199951H14.5C15.05 0.199951 15.5208 0.395785 15.9125 0.787451C16.3042 1.17912 16.5 1.64995 16.5 2.19995V16.2H14.5Z" fill="#323A27"/>
</svg>
