<svg width="16" height="16" viewBox="0 0 16 16" fill="none" xmlns="http://www.w3.org/2000/svg">
<path d="M8 16C7.06667 16 6.1875 15.8542 5.3625 15.5625C4.5375 15.2708 3.78333 14.8583 3.1 14.325L1.7 15.7C1.51667 15.8833 1.28333 15.975 1 15.975C0.716667 15.975 0.483333 15.8833 0.3 15.7C0.116667 15.5167 0.025 15.2833 0.025 15C0.025 14.7167 0.116667 14.4833 0.3 14.3L1.675 12.925C1.14167 12.2417 0.729167 11.4833 0.4375 10.65C0.145833 9.81667 0 8.93333 0 8C0 5.76667 0.775 3.875 2.325 2.325C3.875 0.775 5.76667 0 8 0H16V8C16 10.2333 15.225 12.125 13.675 13.675C12.125 15.225 10.2333 16 8 16ZM8 14C9.66667 14 11.0833 13.4167 12.25 12.25C13.4167 11.0833 14 9.66667 14 8V2H8C6.33333 2 4.91667 2.58333 3.75 3.75C2.58333 4.91667 2 6.33333 2 8C2 8.65 2.1 9.27083 2.3 9.8625C2.5 10.4542 2.775 10.9917 3.125 11.475L8.3 6.3C8.48333 6.11667 8.71667 6.025 9 6.025C9.28333 6.025 9.51667 6.11667 9.7 6.3C9.9 6.5 10 6.7375 10 7.0125C10 7.2875 9.9 7.525 9.7 7.725L4.525 12.9C5.00833 13.25 5.54583 13.5208 6.1375 13.7125C6.72917 13.9042 7.35 14 8 14Z" fill="#E8EAED"/>
</svg>
