<svg width="18" height="16" viewBox="0 0 18 16" fill="none" xmlns="http://www.w3.org/2000/svg">
<path fill-rule="evenodd" clip-rule="evenodd" d="M1.74787 2.6938C2.50788 1.93403 3.53853 1.50721 4.61318 1.50721C5.68783 1.50721 6.71848 1.93403 7.47849 2.6938L8.66595 3.88025L9.85341 2.6938C10.2273 2.30672 10.6745 1.99798 11.1689 1.78557C11.6634 1.57317 12.1952 1.46137 12.7333 1.4567C13.2714 1.45202 13.8051 1.55456 14.3032 1.75834C14.8012 1.96212 15.2537 2.26305 15.6343 2.64357C16.0148 3.0241 16.3157 3.4766 16.5195 3.97467C16.7233 4.47274 16.8258 5.0064 16.8211 5.54453C16.8164 6.08265 16.7046 6.61445 16.4922 7.10891C16.2798 7.60336 15.9711 8.05056 15.584 8.42442L8.66595 15.3435L1.74787 8.42442C0.988098 7.66441 0.561279 6.63376 0.561279 5.55911C0.561279 4.48446 0.988098 3.45381 1.74787 2.6938V2.6938Z" fill="#BA0C0C" stroke="#BA0C0C" stroke-linejoin="round"/>
</svg>
