<svg width="14" height="20" viewBox="0 0 14 20" fill="none" xmlns="http://www.w3.org/2000/svg">
<path d="M7 19.5083C5.05 19.5083 3.39583 18.8292 2.0375 17.4708C0.679167 16.1125 0 14.4583 0 12.5083C0 10.9417 0.4625 9.53751 1.3875 8.29584C2.3125 7.05417 3.525 6.21667 5.025 5.78334C4.69167 5.7 4.36667 5.57917 4.05 5.42084C3.73333 5.2625 3.45 5.05834 3.2 4.80834C2.65 4.25834 2.29583 3.60417 2.1375 2.84584C1.97917 2.0875 1.94167 1.31667 2.025 0.533338C2.80833 0.450004 3.57917 0.487504 4.3375 0.645838C5.09583 0.804171 5.75 1.15834 6.3 1.70834C6.68333 2.09167 6.9625 2.525 7.1375 3.00834C7.3125 3.49167 7.425 4 7.475 4.53334C7.69167 4.01667 7.95417 3.52917 8.2625 3.07084C8.57083 2.6125 8.91667 2.19167 9.3 1.80834C9.48333 1.625 9.71667 1.53334 10 1.53334C10.2833 1.53334 10.5167 1.625 10.7 1.80834C10.8833 1.99167 10.975 2.225 10.975 2.50834C10.975 2.79167 10.8833 3.025 10.7 3.20834C10.3333 3.575 10.0083 3.97917 9.725 4.42084C9.44167 4.8625 9.23333 5.33334 9.1 5.83334C10.5667 6.3 11.75 7.14584 12.65 8.37084C13.55 9.59584 14 10.975 14 12.5083C14 14.4583 13.3208 16.1125 11.9625 17.4708C10.6042 18.8292 8.95 19.5083 7 19.5083ZM7 17.5083C8.38333 17.5083 9.5625 17.0208 10.5375 16.0458C11.5125 15.0708 12 13.8917 12 12.5083C12 11.125 11.5125 9.94584 10.5375 8.97084C9.5625 7.99584 8.38333 7.50834 7 7.50834C5.61667 7.50834 4.4375 7.99584 3.4625 8.97084C2.4875 9.94584 2 11.125 2 12.5083C2 13.8917 2.4875 15.0708 3.4625 16.0458C4.4375 17.0208 5.61667 17.5083 7 17.5083Z" fill="white"/>
</svg>
