        <svg
          class="nav-list__state3"
          width="65"
          height="32"
          viewBox="0 0 65 32"
          fill="none"
          xmlns="http://www.w3.org/2000/svg"
        >
          <path
            d="M23.125 26V8H29.325C29.5583 7.4 29.925 6.91667 30.425 6.55C30.925 6.18333 31.4917 6 32.125 6C32.7583 6 33.325 6.18333 33.825 6.55C34.325 6.91667 34.6917 7.4 34.925 8H41.125V26H23.125ZM32.125 9.25C32.3417 9.25 32.5208 9.17917 32.6625 9.0375C32.8042 8.89583 32.875 8.71667 32.875 8.5C32.875 8.28333 32.8042 8.10417 32.6625 7.9625C32.5208 7.82083 32.3417 7.75 32.125 7.75C31.9083 7.75 31.7292 7.82083 31.5875 7.9625C31.4458 8.10417 31.375 8.28333 31.375 8.5C31.375 8.71667 31.4458 8.89583 31.5875 9.0375C31.7292 9.17917 31.9083 9.25 32.125 9.25ZM25.125 22.85C26.025 21.9667 27.0708 21.2708 28.2625 20.7625C29.4542 20.2542 30.7417 20 32.125 20C33.5083 20 34.7958 20.2542 35.9875 20.7625C37.1792 21.2708 38.225 21.9667 39.125 22.85V10H25.125V22.85ZM32.125 18C33.0917 18 33.9167 17.6583 34.6 16.975C35.2833 16.2917 35.625 15.4667 35.625 14.5C35.625 13.5333 35.2833 12.7083 34.6 12.025C33.9167 11.3417 33.0917 11 32.125 11C31.1583 11 30.3333 11.3417 29.65 12.025C28.9667 12.7083 28.625 13.5333 28.625 14.5C28.625 15.4667 28.9667 16.2917 29.65 16.975C30.3333 17.6583 31.1583 18 32.125 18ZM27.125 24H37.125V23.75C36.425 23.1667 35.65 22.7292 34.8 22.4375C33.95 22.1458 33.0583 22 32.125 22C31.1917 22 30.3 22.1458 29.45 22.4375C28.6 22.7292 27.825 23.1667 27.125 23.75V24ZM32.125 16C31.7083 16 31.3542 15.8542 31.0625 15.5625C30.7708 15.2708 30.625 14.9167 30.625 14.5C30.625 14.0833 30.7708 13.7292 31.0625 13.4375C31.3542 13.1458 31.7083 13 32.125 13C32.5417 13 32.8958 13.1458 33.1875 13.4375C33.4792 13.7292 33.625 14.0833 33.625 14.5C33.625 14.9167 33.4792 15.2708 33.1875 15.5625C32.8958 15.8542 32.5417 16 32.125 16Z"
            fill="#767676"
          />
        </svg>