<svg width="28" height="28" viewBox="0 0 28 28" fill="none" xmlns="http://www.w3.org/2000/svg">
<path d="M25.4 27.5L15.95 18.05C15.2 18.65 14.3375 19.125 13.3625 19.475C12.3875 19.825 11.35 20 10.25 20C7.525 20 5.21875 19.0562 3.33125 17.1688C1.44375 15.2812 0.5 12.975 0.5 10.25C0.5 7.525 1.44375 5.21875 3.33125 3.33125C5.21875 1.44375 7.525 0.5 10.25 0.5C12.975 0.5 15.2812 1.44375 17.1688 3.33125C19.0562 5.21875 20 7.525 20 10.25C20 11.35 19.825 12.3875 19.475 13.3625C19.125 14.3375 18.65 15.2 18.05 15.95L27.5 25.4L25.4 27.5ZM10.25 17C12.125 17 13.7188 16.3438 15.0312 15.0312C16.3438 13.7188 17 12.125 17 10.25C17 8.375 16.3438 6.78125 15.0312 5.46875C13.7188 4.15625 12.125 3.5 10.25 3.5C8.375 3.5 6.78125 4.15625 5.46875 5.46875C4.15625 6.78125 3.5 8.375 3.5 10.25C3.5 12.125 4.15625 13.7188 5.46875 15.0312C6.78125 16.3438 8.375 17 10.25 17Z" fill="white"/>
</svg>
