<svg width="22" height="22" viewBox="0 0 22 22" fill="none" xmlns="http://www.w3.org/2000/svg">
<path d="M7.99005 21.9452L7.55224 18.4427C7.31509 18.3515 7.09163 18.2421 6.88184 18.1144C6.67206 17.9867 6.46683 17.8499 6.26617 17.7039L3.00995 19.0721L0 13.8731L2.81841 11.7388C2.80017 11.6111 2.79104 11.4879 2.79104 11.3694V10.6306C2.79104 10.512 2.80017 10.3888 2.81841 10.2612L0 8.12682L3.00995 2.92782L6.26617 4.29598C6.46683 4.15004 6.67662 4.01323 6.89552 3.88553C7.11443 3.75784 7.33333 3.64838 7.55224 3.55717L7.99005 0.0546875H14.01L14.4478 3.55717C14.6849 3.64838 14.9084 3.75784 15.1182 3.88553C15.3279 4.01323 15.5332 4.15004 15.7338 4.29598L18.99 2.92782L22 8.12682L19.1816 10.2612C19.1998 10.3888 19.209 10.512 19.209 10.6306V11.3694C19.209 11.4879 19.1907 11.6111 19.1542 11.7388L21.9726 13.8731L18.9627 19.0721L15.7338 17.7039C15.5332 17.8499 15.3234 17.9867 15.1045 18.1144C14.8856 18.2421 14.6667 18.3515 14.4478 18.4427L14.01 21.9452H7.99005ZM9.90547 19.7562H12.0672L12.4502 16.8557C13.0158 16.7097 13.5402 16.4954 14.0236 16.2126C14.507 15.9299 14.9494 15.5878 15.3507 15.1865L18.0597 16.3084L19.1269 14.4477L16.7736 12.6691C16.8648 12.4137 16.9287 12.1446 16.9652 11.8619C17.0017 11.5791 17.0199 11.2918 17.0199 11C17.0199 10.7081 17.0017 10.4208 16.9652 10.138C16.9287 9.85526 16.8648 9.58619 16.7736 9.3308L19.1269 7.5522L18.0597 5.6915L15.3507 6.84075C14.9494 6.42119 14.507 6.07002 14.0236 5.78727C13.5402 5.50452 13.0158 5.29017 12.4502 5.14424L12.0945 2.24374H9.93284L9.54975 5.14424C8.98425 5.29017 8.45978 5.50452 7.97637 5.78727C7.49295 6.07002 7.05058 6.41207 6.64925 6.81339L3.9403 5.6915L2.87313 7.5522L5.22637 9.30344C5.13516 9.57707 5.07131 9.8507 5.03483 10.1243C4.99834 10.398 4.9801 10.6898 4.9801 11C4.9801 11.2918 4.99834 11.5746 5.03483 11.8482C5.07131 12.1218 5.13516 12.3955 5.22637 12.6691L2.87313 14.4477L3.9403 16.3084L6.64925 15.1592C7.05058 15.5787 7.49295 15.9299 7.97637 16.2126C8.45978 16.4954 8.98425 16.7097 9.54975 16.8557L9.90547 19.7562ZM11.0547 14.8308C12.1128 14.8308 13.0158 14.4568 13.7637 13.7089C14.5116 12.961 14.8856 12.058 14.8856 11C14.8856 9.94191 14.5116 9.03893 13.7637 8.291C13.0158 7.54308 12.1128 7.16911 11.0547 7.16911C9.97844 7.16911 9.0709 7.54308 8.33209 8.291C7.59328 9.03893 7.22388 9.94191 7.22388 11C7.22388 12.058 7.59328 12.961 8.33209 13.7089C9.0709 14.4568 9.97844 14.8308 11.0547 14.8308Z" fill="white"/>
</svg>
