<svg width="21" height="24" viewBox="0 0 21 24" fill="none" xmlns="http://www.w3.org/2000/svg">
<path d="M16.875 23.25C15.9375 23.25 15.1406 22.9219 14.4844 22.2656C13.8281 21.6094 13.5 20.8125 13.5 19.875C13.5 19.7625 13.5281 19.5 13.5844 19.0875L5.68125 14.475C5.38125 14.7562 5.03438 14.9766 4.64062 15.1359C4.24687 15.2953 3.825 15.375 3.375 15.375C2.4375 15.375 1.64062 15.0469 0.984375 14.3906C0.328125 13.7344 0 12.9375 0 12C0 11.0625 0.328125 10.2656 0.984375 9.60938C1.64062 8.95312 2.4375 8.625 3.375 8.625C3.825 8.625 4.24687 8.70469 4.64062 8.86406C5.03438 9.02344 5.38125 9.24375 5.68125 9.525L13.5844 4.9125C13.5469 4.78125 13.5234 4.65469 13.5141 4.53281C13.5047 4.41094 13.5 4.275 13.5 4.125C13.5 3.1875 13.8281 2.39062 14.4844 1.73438C15.1406 1.07812 15.9375 0.75 16.875 0.75C17.8125 0.75 18.6094 1.07812 19.2656 1.73438C19.9219 2.39062 20.25 3.1875 20.25 4.125C20.25 5.0625 19.9219 5.85938 19.2656 6.51562C18.6094 7.17188 17.8125 7.5 16.875 7.5C16.425 7.5 16.0031 7.42031 15.6094 7.26094C15.2156 7.10156 14.8687 6.88125 14.5687 6.6L6.66563 11.2125C6.70312 11.3438 6.72656 11.4703 6.73594 11.5922C6.74531 11.7141 6.75 11.85 6.75 12C6.75 12.15 6.74531 12.2859 6.73594 12.4078C6.72656 12.5297 6.70312 12.6562 6.66563 12.7875L14.5687 17.4C14.8687 17.1187 15.2156 16.8984 15.6094 16.7391C16.0031 16.5797 16.425 16.5 16.875 16.5C17.8125 16.5 18.6094 16.8281 19.2656 17.4844C19.9219 18.1406 20.25 18.9375 20.25 19.875C20.25 20.8125 19.9219 21.6094 19.2656 22.2656C18.6094 22.9219 17.8125 23.25 16.875 23.25ZM16.875 21C17.1938 21 17.4609 20.8922 17.6766 20.6766C17.8922 20.4609 18 20.1938 18 19.875C18 19.5562 17.8922 19.2891 17.6766 19.0734C17.4609 18.8578 17.1938 18.75 16.875 18.75C16.5562 18.75 16.2891 18.8578 16.0734 19.0734C15.8578 19.2891 15.75 19.5562 15.75 19.875C15.75 20.1938 15.8578 20.4609 16.0734 20.6766C16.2891 20.8922 16.5562 21 16.875 21ZM3.375 13.125C3.69375 13.125 3.96094 13.0172 4.17656 12.8016C4.39219 12.5859 4.5 12.3188 4.5 12C4.5 11.6812 4.39219 11.4141 4.17656 11.1984C3.96094 10.9828 3.69375 10.875 3.375 10.875C3.05625 10.875 2.78906 10.9828 2.57344 11.1984C2.35781 11.4141 2.25 11.6812 2.25 12C2.25 12.3188 2.35781 12.5859 2.57344 12.8016C2.78906 13.0172 3.05625 13.125 3.375 13.125ZM16.875 5.25C17.1938 5.25 17.4609 5.14219 17.6766 4.92656C17.8922 4.71094 18 4.44375 18 4.125C18 3.80625 17.8922 3.53906 17.6766 3.32344C17.4609 3.10781 17.1938 3 16.875 3C16.5562 3 16.2891 3.10781 16.0734 3.32344C15.8578 3.53906 15.75 3.80625 15.75 4.125C15.75 4.44375 15.8578 4.71094 16.0734 4.92656C16.2891 5.14219 16.5562 5.25 16.875 5.25Z" fill="white"/>
</svg>
