<svg width="74" height="30" viewBox="0 0 74 30" fill="none" xmlns="http://www.w3.org/2000/svg">
<rect width="74" height="30" rx="12" fill="#323A27"/>
<path d="M17.8379 10.1973V11.4141H14.3105V13.4375H17.6191V14.627H14.3105V17.0332C15.835 17.0195 16.8945 16.9648 18.1523 16.7734L18.2754 18.0176C16.8398 18.2637 15.623 18.3047 13.6953 18.3047H12.8613V10.1973H17.8379ZM23.0742 8.85742V21.2168H21.6113V14.9414H20.3398V20.6152H18.9043V9.07617H20.3398V13.7109H21.6113V8.85742H23.0742ZM34.3048 10.0605V11.4551C34.3048 13.1094 34.3048 14.8184 33.8537 17.416L32.3088 17.2793C32.7873 14.8457 32.7873 13.0547 32.7873 11.4551V11.291H25.6642V10.0605H34.3048ZM35.7404 18.2773V19.5215H24.4748V18.2773H35.7404ZM44.2563 10.1016V20H42.4653V11.8379H42.4106L40.1001 13.3145V11.6875L42.5473 10.1016H44.2563Z" fill="white"/>
<path d="M60.3327 11.666L53.666 18.3327M60.3327 18.3327L53.666 11.666" stroke="white" stroke-width="2" stroke-linecap="round"/>
</svg>
