<svg width="23" height="22" viewBox="0 0 23 22" fill="none" xmlns="http://www.w3.org/2000/svg">
<path d="M5.7399 10.9055C5.7399 11.9659 4.88029 12.8255 3.8199 12.8255C2.75952 12.8255 1.8999 11.9659 1.8999 10.9055C1.8999 9.84515 2.75952 8.98554 3.8199 8.98554C4.88029 8.98554 5.7399 9.84515 5.7399 10.9055ZM5.7399 10.9055H17.2599M17.2599 10.9055C17.2599 11.9659 18.1195 12.8255 19.1799 12.8255C20.2403 12.8255 21.0999 11.9659 21.0999 10.9055C21.0999 9.84515 20.2403 8.98554 19.1799 8.98554C18.1195 8.98554 17.2599 9.84515 17.2599 10.9055ZM17.2599 3.22554C17.2599 4.28593 18.1195 5.14554 19.1799 5.14554C20.2403 5.14554 21.0999 4.28593 21.0999 3.22554C21.0999 2.16516 20.2403 1.30554 19.1799 1.30554C18.1195 1.30554 17.2599 2.16516 17.2599 3.22554ZM17.2599 3.22554H11.7399C11.2097 3.22554 10.7799 3.65535 10.7799 4.18554V17.6255C10.7799 18.1557 11.2097 18.5855 11.7399 18.5855H17.2599M17.2599 18.5855C17.2599 19.6459 18.1195 20.5055 19.1799 20.5055C20.2403 20.5055 21.0999 19.6459 21.0999 18.5855C21.0999 17.5252 20.2403 16.6655 19.1799 16.6655C18.1195 16.6655 17.2599 17.5252 17.2599 18.5855Z" stroke="white" stroke-width="2" stroke-linecap="round"/>
</svg>
