<svg width="16" height="16" viewBox="0 0 16 16" fill="none" xmlns="http://www.w3.org/2000/svg">
<rect width="16" height="16" rx="8" fill="#B3261E"/>
<path d="M6.98486 7.50439H7.7583C8.05908 7.50439 8.30794 7.45247 8.50488 7.34863C8.7054 7.24479 8.854 7.10156 8.95068 6.91895C9.04736 6.73633 9.0957 6.52686 9.0957 6.29053C9.0957 6.04346 9.05094 5.83219 8.96143 5.65674C8.87549 5.4777 8.743 5.33984 8.56396 5.24316C8.38851 5.14648 8.16471 5.09814 7.89258 5.09814C7.66341 5.09814 7.45573 5.14469 7.26953 5.23779C7.08691 5.32731 6.94189 5.45622 6.83447 5.62451C6.72705 5.78923 6.67334 5.98617 6.67334 6.21533H5.37354C5.37354 5.79997 5.48275 5.43115 5.70117 5.10889C5.9196 4.78662 6.2168 4.53418 6.59277 4.35156C6.97233 4.16536 7.39844 4.07227 7.87109 4.07227C8.37598 4.07227 8.81641 4.15641 9.19238 4.32471C9.57194 4.48942 9.86735 4.73649 10.0786 5.06592C10.2899 5.39535 10.3955 5.80355 10.3955 6.29053C10.3955 6.51253 10.3436 6.73812 10.2397 6.96729C10.1359 7.19645 9.98193 7.40592 9.77783 7.5957C9.57373 7.7819 9.3195 7.93408 9.01514 8.05225C8.71077 8.16683 8.35807 8.22412 7.95703 8.22412H6.98486V7.50439ZM6.98486 8.51416V7.80518H7.95703C8.41536 7.80518 8.80566 7.85889 9.12793 7.96631C9.45378 8.07373 9.71875 8.22233 9.92285 8.41211C10.127 8.59831 10.2756 8.81136 10.3687 9.05127C10.4653 9.29118 10.5137 9.54541 10.5137 9.81396C10.5137 10.1792 10.4474 10.505 10.3149 10.7915C10.186 11.0744 10.0016 11.3143 9.76172 11.5112C9.52181 11.7082 9.24072 11.8568 8.91846 11.957C8.59977 12.0573 8.25244 12.1074 7.87646 12.1074C7.53988 12.1074 7.21761 12.0609 6.90967 11.9678C6.60173 11.8747 6.32601 11.7368 6.08252 11.5542C5.83903 11.368 5.64567 11.137 5.50244 10.8613C5.36279 10.582 5.29297 10.2598 5.29297 9.89453H6.5874C6.5874 10.1273 6.64111 10.3332 6.74854 10.5122C6.85954 10.6877 7.01351 10.8255 7.21045 10.9258C7.41097 11.026 7.64014 11.0762 7.89795 11.0762C8.17008 11.0762 8.40462 11.0278 8.60156 10.9312C8.7985 10.8345 8.94889 10.6912 9.05273 10.5015C9.16016 10.3117 9.21387 10.0825 9.21387 9.81396C9.21387 9.5096 9.15479 9.26253 9.03662 9.07275C8.91846 8.88298 8.75016 8.74333 8.53174 8.65381C8.31331 8.56071 8.0555 8.51416 7.7583 8.51416H6.98486Z" fill="white"/>
</svg>
