<svg width="40" height="40" viewBox="0 0 40 40" fill="none" xmlns="http://www.w3.org/2000/svg">
<rect width="40" height="40" rx="4" fill="#323A27"/>
<path d="M21.9681 26.2209C21.9681 27.5248 23.0252 28.5818 24.3291 28.5818C25.633 28.5818 26.69 27.5248 26.69 26.2209C26.69 24.917 25.633 23.86 24.3291 23.86C23.0252 23.86 21.9681 24.917 21.9681 26.2209ZM21.9681 26.2209H18.0005C15.7914 26.2209 14.0006 24.4302 14.0005 22.2211L14 12M21.5255 16.7772H14M26.69 16.7772C26.69 18.0811 25.633 19.1381 24.3291 19.1381C23.0252 19.1381 21.9681 18.0811 21.9681 16.7772C21.9681 15.4733 23.0252 14.4163 24.3291 14.4163C25.633 14.4163 26.69 15.4733 26.69 16.7772Z" stroke="white" stroke-width="2" stroke-linecap="round"/>
</svg>
