<svg width="75" height="30" viewBox="0 0 75 30" fill="none" xmlns="http://www.w3.org/2000/svg">
<rect x="0.5" width="74" height="30" rx="12" fill="#323A27"/>
<path d="M18.3379 10.1973V11.4141H14.8105V13.4375H18.1191V14.627H14.8105V17.0332C16.335 17.0195 17.3945 16.9648 18.6523 16.7734L18.7754 18.0176C17.3398 18.2637 16.123 18.3047 14.1953 18.3047H13.3613V10.1973H18.3379ZM23.5742 8.85742V21.2168H22.1113V14.9414H20.8398V20.6152H19.4043V9.07617H20.8398V13.7109H22.1113V8.85742H23.5742ZM34.8048 10.0605V11.4551C34.8048 13.1094 34.8048 14.8184 34.3537 17.416L32.8088 17.2793C33.2873 14.8457 33.2873 13.0547 33.2873 11.4551V11.291H26.1642V10.0605H34.8048ZM36.2404 18.2773V19.5215H24.9748V18.2773H36.2404ZM44.7563 10.1016V20H42.9653V11.8379H42.9106L40.6001 13.3145V11.6875L43.0473 10.1016H44.7563Z" fill="white"/>
<path d="M60.8327 11.666L54.166 18.3327M60.8327 18.3327L54.166 11.666" stroke="white" stroke-width="2" stroke-linecap="round"/>
</svg>
