<svg width="23" height="22" viewBox="0 0 23 22" fill="none" xmlns="http://www.w3.org/2000/svg">
<path d="M5.7399 11.2C5.7399 12.2604 4.88029 13.12 3.8199 13.12C2.75952 13.12 1.8999 12.2604 1.8999 11.2C1.8999 10.1396 2.75952 9.27997 3.8199 9.27997C4.88029 9.27997 5.7399 10.1396 5.7399 11.2ZM5.7399 11.2H17.2599M17.2599 11.2C17.2599 12.2604 18.1195 13.12 19.1799 13.12C20.2403 13.12 21.0999 12.2604 21.0999 11.2C21.0999 10.1396 20.2403 9.27997 19.1799 9.27997C18.1195 9.27997 17.2599 10.1396 17.2599 11.2ZM17.2599 3.51998C17.2599 4.58036 18.1195 5.43998 19.1799 5.43998C20.2403 5.43998 21.0999 4.58036 21.0999 3.51998C21.0999 2.45959 20.2403 1.59998 19.1799 1.59998C18.1195 1.59998 17.2599 2.45959 17.2599 3.51998ZM17.2599 3.51998H11.7399C11.2097 3.51998 10.7799 3.94978 10.7799 4.47998V17.92C10.7799 18.4502 11.2097 18.88 11.7399 18.88H17.2599M17.2599 18.88C17.2599 19.9404 18.1195 20.8 19.1799 20.8C20.2403 20.8 21.0999 19.9404 21.0999 18.88C21.0999 17.8196 20.2403 16.96 19.1799 16.96C18.1195 16.96 17.2599 17.8196 17.2599 18.88Z" stroke="#323A27" stroke-width="2" stroke-linecap="round"/>
</svg>
