<svg width="135" height="198" viewBox="0 0 135 198" fill="none" xmlns="http://www.w3.org/2000/svg">
<g filter="url(#filter0_d_1385_7024)">
<rect x="4.5" width="126" height="189.315" rx="4" fill="#323A27" shape-rendering="crispEdges"/>
<path d="M59.2004 84.4898V85.4898C59.5561 85.4898 59.885 85.3009 60.0642 84.9936L59.2004 84.4898ZM62.1054 79.5098V78.5098C61.7497 78.5098 61.4208 78.6987 61.2416 79.0059L62.1054 79.5098ZM72.8954 79.5098L73.7592 79.0059C73.58 78.6987 73.2511 78.5098 72.8954 78.5098V79.5098ZM75.8004 84.4898L74.9366 84.9936C75.1158 85.3009 75.4447 85.4898 75.8004 85.4898V84.4898ZM51.9004 105.655V88.6398H49.9004V105.655H51.9004ZM55.0504 85.4898H59.2004V83.4898H55.0504V85.4898ZM60.0642 84.9936L62.9692 80.0136L61.2416 79.0059L58.3366 83.9859L60.0642 84.9936ZM62.1054 80.5098H72.8954V78.5098H62.1054V80.5098ZM72.0316 80.0136L74.9366 84.9936L76.6642 83.9859L73.7592 79.0059L72.0316 80.0136ZM75.8004 85.4898H79.9504V83.4898H75.8004V85.4898ZM83.1004 88.6398V105.655H85.1004V88.6398H83.1004ZM83.1004 105.655C83.1004 107.394 81.6901 108.805 79.9504 108.805V110.805C82.7947 110.805 85.1004 108.499 85.1004 105.655H83.1004ZM79.9504 85.4898C81.6901 85.4898 83.1004 86.9001 83.1004 88.6398H85.1004C85.1004 85.7955 82.7947 83.4898 79.9504 83.4898V85.4898ZM51.9004 88.6398C51.9004 86.9001 53.3107 85.4898 55.0504 85.4898V83.4898C52.2061 83.4898 49.9004 85.7955 49.9004 88.6398H51.9004ZM55.0504 108.805C53.3107 108.805 51.9004 107.394 51.9004 105.655H49.9004C49.9004 108.499 52.2061 110.805 55.0504 110.805V108.805ZM72.7254 96.1098C72.7254 98.9954 70.3861 101.335 67.5004 101.335V103.335C71.4906 103.335 74.7254 100.1 74.7254 96.1098H72.7254ZM67.5004 101.335C64.6147 101.335 62.2754 98.9954 62.2754 96.1098H60.2754C60.2754 100.1 63.5101 103.335 67.5004 103.335V101.335ZM62.2754 96.1098C62.2754 93.2241 64.6147 90.8848 67.5004 90.8848V88.8848C63.5101 88.8848 60.2754 92.1195 60.2754 96.1098H62.2754ZM67.5004 90.8848C70.3861 90.8848 72.7254 93.2241 72.7254 96.1098H74.7254C74.7254 92.1195 71.4906 88.8848 67.5004 88.8848V90.8848ZM79.9504 108.805H55.0504V110.805H79.9504V108.805Z" fill="#E5EDDB"/>
</g>
<defs>
<filter id="filter0_d_1385_7024" x="0.5" y="0" width="134" height="197.315" filterUnits="userSpaceOnUse" color-interpolation-filters="sRGB">
<feFlood flood-opacity="0" result="BackgroundImageFix"/>
<feColorMatrix in="SourceAlpha" type="matrix" values="0 0 0 0 0 0 0 0 0 0 0 0 0 0 0 0 0 0 127 0" result="hardAlpha"/>
<feOffset dy="4"/>
<feGaussianBlur stdDeviation="2"/>
<feComposite in2="hardAlpha" operator="out"/>
<feColorMatrix type="matrix" values="0 0 0 0 0 0 0 0 0 0 0 0 0 0 0 0 0 0 0.25 0"/>
<feBlend mode="normal" in2="BackgroundImageFix" result="effect1_dropShadow_1385_7024"/>
<feBlend mode="normal" in="SourceGraphic" in2="effect1_dropShadow_1385_7024" result="shape"/>
</filter>
</defs>
</svg>
