<svg width="17" height="21" viewBox="0 0 17 21" fill="none" xmlns="http://www.w3.org/2000/svg">
<path d="M0.5 20.9055V6.90552C0.5 6.35552 0.695833 5.88468 1.0875 5.49302C1.47917 5.10135 1.95 4.90552 2.5 4.90552H10.5C11.05 4.90552 11.5208 5.10135 11.9125 5.49302C12.3042 5.88468 12.5 6.35552 12.5 6.90552V20.9055L6.5 17.9055L0.5 20.9055ZM2.5 17.8805L6.5 15.7305L10.5 17.8805V6.90552H2.5V17.8805ZM14.5 16.9055V2.90552H3.5V0.905518H14.5C15.05 0.905518 15.5208 1.10135 15.9125 1.49302C16.3042 1.88468 16.5 2.35552 16.5 2.90552V16.9055H14.5Z" fill="white"/>
</svg>
