<svg width="26" height="18" viewBox="0 0 26 18" fill="none" xmlns="http://www.w3.org/2000/svg">
<path d="M20.6 18L14.3 11.7C13.8 12.1 13.225 12.4167 12.575 12.65C11.925 12.8833 11.2333 13 10.5 13C8.68333 13 7.14583 12.3708 5.8875 11.1125C4.62917 9.85417 4 8.31667 4 6.5C4 4.68333 4.62917 3.14583 5.8875 1.8875C7.14583 0.629167 8.68333 0 10.5 0C12.3167 0 13.8542 0.629167 15.1125 1.8875C16.3708 3.14583 17 4.68333 17 6.5C17 7.23333 16.8833 7.925 16.65 8.575C16.4167 9.225 16.1 9.8 15.7 10.3L22 16.6L20.6 18ZM10.5 11C11.75 11 12.8125 10.5625 13.6875 9.6875C14.5625 8.8125 15 7.75 15 6.5C15 5.25 14.5625 4.1875 13.6875 3.3125C12.8125 2.4375 11.75 2 10.5 2C9.25 2 8.1875 2.4375 7.3125 3.3125C6.4375 4.1875 6 5.25 6 6.5C6 7.75 6.4375 8.8125 7.3125 9.6875C8.1875 10.5625 9.25 11 10.5 11Z" fill="#1D1B20"/>
</svg>
