<svg width="19" height="17" viewBox="0 0 19 17" fill="none" xmlns="http://www.w3.org/2000/svg">
<path fill-rule="evenodd" clip-rule="evenodd" d="M2.74787 2.6938C3.50788 1.93403 4.53853 1.50721 5.61318 1.50721C6.68783 1.50721 7.71848 1.93403 8.47849 2.6938L9.66595 3.88025L10.8534 2.6938C11.2273 2.30672 11.6745 1.99798 12.1689 1.78557C12.6634 1.57317 13.1952 1.46137 13.7333 1.4567C14.2714 1.45202 14.8051 1.55456 15.3032 1.75834C15.8012 1.96212 16.2537 2.26305 16.6343 2.64357C17.0148 3.0241 17.3157 3.4766 17.5195 3.97467C17.7233 4.47274 17.8258 5.0064 17.8211 5.54453C17.8164 6.08265 17.7046 6.61445 17.4922 7.10891C17.2798 7.60336 16.9711 8.05056 16.584 8.42442L9.66595 15.3435L2.74787 8.42442C1.9881 7.66441 1.56128 6.63376 1.56128 5.55911C1.56128 4.48446 1.9881 3.45381 2.74787 2.6938V2.6938Z" stroke="#767676" stroke-width="2" stroke-linejoin="round"/>
</svg>
