<svg width="15" height="15" viewBox="0 0 15 15" fill="none" xmlns="http://www.w3.org/2000/svg">
<path d="M5.75065 12.9479H11.0007C11.4848 12.9479 11.899 12.6563 12.074 12.2363L13.8357 8.12375C13.8882 7.98958 13.9173 7.84958 13.9173 7.69792V6.53125C13.9173 5.88958 13.3923 5.36458 12.7507 5.36458H9.06982L9.62399 2.69875L9.64149 2.51208C9.64149 2.27292 9.54232 2.05125 9.38482 1.89375L8.76648 1.28125L4.92232 5.12542C4.71232 5.33542 4.58398 5.62708 4.58398 5.94792V11.7812C4.58398 12.4229 5.10898 12.9479 5.75065 12.9479ZM5.75065 5.94792L8.28232 3.41625L7.50065 6.53125H12.7507V7.69792L11.0007 11.7812H5.75065V5.94792ZM1.08398 5.94792H3.41732V12.9479H1.08398V5.94792Z" fill="#323A27" fill-opacity="0.3"/>
</svg>
