<svg width="13" height="12" viewBox="0 0 13 12" fill="none" xmlns="http://www.w3.org/2000/svg">
<path d="M4.75065 11.9479H10.0007C10.4848 11.9479 10.899 11.6563 11.074 11.2363L12.8357 7.12375C12.8882 6.98958 12.9173 6.84958 12.9173 6.69792V5.53125C12.9173 4.88958 12.3923 4.36458 11.7507 4.36458H8.06982L8.62399 1.69875L8.64149 1.51208C8.64149 1.27292 8.54232 1.05125 8.38482 0.89375L7.76648 0.28125L3.92232 4.12542C3.71232 4.33542 3.58398 4.62708 3.58398 4.94792V10.7812C3.58398 11.4229 4.10898 11.9479 4.75065 11.9479ZM4.75065 4.94792L7.28232 2.41625L6.50065 5.53125H11.7507V6.69792L10.0007 10.7812H4.75065V4.94792ZM0.0839844 4.94792H2.41732V11.9479H0.0839844V4.94792Z" fill="#323A27"/>
</svg>
